<svg width="48" height="48" viewBox="0 0 48 48" fill="none" xmlns="http://www.w3.org/2000/svg">
<path d="M21.8617 7.42247L6.94849 13.5933C6.11917 13.9365 6.12777 15.1147 6.96228 15.4454L21.9377 21.3841C23.2534 21.9059 24.7188 21.9059 26.0345 21.3841L41.0101 15.4452C41.8444 15.1147 41.8535 13.9367 41.0237 13.5935L26.1109 7.42224C24.7504 6.85925 23.222 6.85925 21.8615 7.42224" fill="white"/>
<path d="M25.3148 24.6266V39.4622C25.3148 40.1677 26.0263 40.6511 26.6822 40.391L43.3694 33.9139C43.5555 33.8401 43.7152 33.7121 43.8276 33.5465C43.9401 33.3809 44.0002 33.1853 44.0002 32.9851V18.1496C44.0002 17.444 43.2887 16.9608 42.6328 17.2208L25.9456 23.698C25.7595 23.7718 25.5999 23.8998 25.4875 24.0654C25.375 24.2311 25.3148 24.4266 25.3148 24.6268" fill="white"/>
<path d="M21.4179 25.3922L16.4655 27.7834L15.9627 28.0265L5.5085 33.0356C4.84605 33.3553 4 32.8724 4 32.1362V18.2119C4 17.9456 4.13656 17.7156 4.3197 17.5427C4.39483 17.4679 4.48007 17.4039 4.57292 17.3528C4.82253 17.2029 5.17886 17.1628 5.48183 17.2827L21.3347 23.564C22.1405 23.8837 22.2038 25.0129 21.4179 25.3925" fill="white"/>
</svg>
