<svg width="48" height="48" viewBox="0 0 48 48" fill="none" xmlns="http://www.w3.org/2000/svg">
<path fill-rule="evenodd" clip-rule="evenodd" d="M9.69479 0H38.2992C43.6565 0 47.994 4.338 48 9.696V38.304C48 43.662 43.6565 48 38.3052 48H9.69479C4.33746 48 0 43.662 0 38.31V9.696C0 4.338 4.33746 0 9.69479 0ZM24.7657 9.348L23.7938 11.028L22.8399 9.342C22.228 8.292 20.9022 7.938 19.8523 8.538C18.8024 9.15 18.4485 10.476 19.0484 11.526L21.2741 15.39L14.147 27.744H8.57972C7.36787 27.744 6.396 28.716 6.396 29.928C6.396 31.14 7.36787 32.112 8.57972 32.112H28.4372C29.3911 30.324 28.1613 27.744 25.9655 27.744H19.1924L28.5572 11.532C29.1571 10.482 28.8032 9.144 27.7533 8.544C26.7034 7.944 25.3656 8.298 24.7657 9.348ZM13.2711 38.004L15.3709 34.362C14.237 32.994 12.8032 32.574 11.0394 33.12L9.47961 35.82C8.87968 36.87 9.23364 38.208 10.2835 38.808C11.3334 39.408 12.6712 39.054 13.2711 38.004ZM39.1339 27.756H33.4526C33.0172 27.002 32.5985 26.2767 32.1964 25.5802C29.9556 21.6989 28.2311 18.7117 27.0154 16.626C25.7256 17.7 24.4177 20.868 26.2475 24.024C27.041 25.4008 28.0129 27.0837 29.1623 29.0738C30.6025 31.5675 32.3212 34.5436 34.3165 38.004C34.9284 39.054 36.2543 39.408 37.3041 38.808C38.354 38.196 38.7079 36.87 38.108 35.82L35.9783 32.124H39.1339C40.3457 32.124 41.3176 31.152 41.3176 29.94C41.3176 28.728 40.3457 27.756 39.1339 27.756Z" fill="black"/>
</svg>
