<svg width="48" height="48" viewBox="0 0 48 48" fill="none" xmlns="http://www.w3.org/2000/svg">
<path fill-rule="evenodd" clip-rule="evenodd" d="M11.0769 0C4.95931 0 0 4.95931 0 11.0769V36.9231C0 43.0407 4.95931 48 11.0769 48H36.9231C43.0407 48 48 43.0407 48 36.9231V11.0769C48 4.95931 43.0407 0 36.9231 0H11.0769ZM19.181 31.5223C20.601 32.4534 22.2558 32.9657 23.9548 33C27.5638 33 32.9774 29.4 32.9774 25.8H42C41.5371 30.3947 39.3215 34.6363 35.8114 37.6473C32.3014 40.6584 27.7655 42.2086 23.1418 41.9774C18.5181 41.7462 14.1604 39.7513 10.9698 36.4052C7.77927 33.0591 6 28.6179 6 24C6 19.3821 7.77927 14.9409 10.9698 11.5948C14.1604 8.2487 18.5181 6.25377 23.1418 6.02259C27.7655 5.79141 32.3014 7.34165 35.8114 10.3527C39.3215 13.3637 41.5371 17.6053 42 22.2H32.9774C32.6372 20.5392 31.8337 19.008 30.6594 17.7827C29.4851 16.5574 27.9878 15.6879 26.3398 15.2741C24.6918 14.8603 22.9602 14.9192 21.3444 15.444C19.7285 15.9687 18.294 16.938 17.2061 18.2402C16.1182 19.5424 15.4211 21.1246 15.195 22.8047C14.969 24.4847 15.2232 26.1943 15.9283 27.7365C16.6335 29.2788 17.761 30.5911 19.181 31.5223Z" fill="black"/>
</svg>
