<svg width="48" height="48" viewBox="0 0 48 48" fill="none" xmlns="http://www.w3.org/2000/svg">
<path fill-rule="evenodd" clip-rule="evenodd" d="M28.0408 44.3331C29.5305 44.9179 32.4952 46.0179 33.1389 45.7777C34.0071 45.4403 33.7897 38.3853 32.8154 38.1605C32.0353 37.9845 29.0483 40.1243 27.8712 40.9975C27.8254 40.8008 27.7818 40.6466 27.7468 40.5561C27.6572 40.3302 26.9657 40.2717 26.1814 40.3498C24.8635 37.0881 23.89 33.3559 24.4857 30.7103L24.4943 30.7164C25.3177 31.2989 30.7998 33.1796 33.5197 33.1275C36.2428 33.0735 40.7146 31.3777 40.2235 30.0189C39.7348 28.6597 35.2934 31.2181 30.6609 30.7816C27.2303 30.4573 26.6248 28.8943 27.3845 27.7529C28.3398 26.318 30.0803 28.0251 32.9506 27.1516C35.8255 26.2805 39.846 24.7212 41.3377 23.8722C44.7868 21.9168 39.8945 21.1058 38.7388 21.6483C37.6438 22.1628 33.8316 23.1412 32.0634 23.5752C33.0578 20.0202 30.6728 13.8357 28.0126 11.1295C27.1454 10.2476 25.812 9.6923 24.3097 9.39942C23.7318 8.59306 22.8 7.8219 21.4805 7.108C19.0174 5.77823 15.97 5.23865 13.1365 5.73921C12.7466 5.79688 12.5317 5.94056 12.2289 5.99092C12.5699 6.02169 13.8623 6.63525 14.6742 6.97252C14.2777 7.12586 13.736 7.21749 13.3132 7.39353C13.14 7.42283 12.9744 7.46735 12.8248 7.53559C12.4255 7.71958 12.1269 8.41658 12.1297 8.74654C14.0682 8.54739 16.9369 8.68347 19.0334 9.31929C17.5497 9.53155 16.1868 9.92411 15.2017 10.4527C15.1563 10.477 15.1113 10.5016 15.0669 10.5266C14.9488 10.5727 14.8406 10.6215 14.7438 10.6733C11.5832 12.3667 10.1871 16.322 11.0192 21.0616C11.7786 25.3748 14.8918 40.1135 16.3171 47.0444C7.13066 43.7582 0.545532 34.8566 0.545532 24.3908C0.545532 11.1317 11.1151 0.382996 24.1532 0.382996C37.1914 0.382996 47.7609 11.1317 47.7609 24.3908C47.7609 35.6804 40.0982 45.15 29.7734 47.7142C29.141 46.474 28.5423 45.3168 28.0408 44.3331Z" fill="white"/>
<path fill-rule="evenodd" clip-rule="evenodd" d="M15.702 20.5069C15.702 19.5245 16.4834 18.7294 17.4508 18.7294C18.4154 18.7294 19.1977 19.5245 19.1977 20.5069C19.1977 21.4897 18.4154 22.2839 17.4508 22.2839C16.4834 22.2843 15.702 21.4897 15.702 20.5069ZM17.7725 19.9145C17.7725 20.1694 17.9765 20.3768 18.2248 20.3764C18.4754 20.3764 18.6789 20.1694 18.6789 19.9145C18.6789 19.6587 18.4754 19.4531 18.2248 19.4531C17.976 19.4531 17.7725 19.6587 17.7725 19.9145ZM27.6309 19.4527C27.6309 18.6111 28.3052 17.9272 29.1318 17.9272C29.9631 17.9272 30.6346 18.6111 30.6346 19.4527C30.6346 20.298 29.9631 20.9818 29.1318 20.9818C28.3052 20.9818 27.6309 20.298 27.6309 19.4527ZM29.4115 18.9448C29.4115 19.165 29.5865 19.34 29.7983 19.34C30.0194 19.34 30.1888 19.165 30.1888 18.9448C30.1888 18.7275 30.0194 18.5492 29.7983 18.5492C29.5865 18.5492 29.4115 18.7275 29.4115 18.9448ZM17.9474 15.3566C17.9474 15.3566 16.6301 14.7506 15.3494 15.5692C14.0709 16.3868 14.118 17.2227 14.118 17.2227C14.118 17.2227 13.4381 15.6818 15.2501 14.9266C17.064 14.1714 17.9474 15.3566 17.9474 15.3566ZM30.036 15.2345C30.036 15.2345 29.0894 14.6844 28.3546 14.6938C26.8449 14.714 26.4337 15.3922 26.4337 15.3922C26.4337 15.3922 26.6871 13.7753 28.6177 14.0996C29.6645 14.2766 30.036 15.2345 30.036 15.2345Z" fill="white"/>
</svg>
