<svg width="48" height="48" viewBox="0 0 48 48" fill="none" xmlns="http://www.w3.org/2000/svg">
<path d="M28.4454 28.0224C28.496 27.9766 28.5409 27.9361 28.5741 27.8991L28.5554 27.9179C29.5116 26.6804 30.0178 25.1992 30.0178 24.1868C30.0178 23.9732 30.0086 23.6921 29.9834 23.3628C29.8692 22.3062 29.4749 21.2953 28.8366 20.4368C28.2757 19.6865 27.5489 19.0761 26.713 18.6533C25.8771 18.2304 24.9547 18.0067 24.018 17.9994C22.728 17.9812 21.7549 18.4384 21.1499 18.7227L21.093 18.7494C20.1719 19.2524 19.4015 19.9918 18.8611 20.8915C18.3206 21.7911 18.0297 22.8185 18.0181 23.868C18.0181 31.7052 25.7429 37.7988 34.6114 37.7988C36.909 37.8068 39.1891 37.4003 41.3424 36.5988C42.0225 36.3464 42.6862 36.0521 43.3299 35.7176C43.4748 35.6407 43.6409 35.6134 43.8028 35.64C43.9647 35.6665 44.1134 35.7454 44.2262 35.8645C44.339 35.9837 44.4095 36.1365 44.4271 36.2996C44.4447 36.4627 44.4083 36.6271 44.3236 36.7676C41.4068 41.3903 37.0027 44.8819 31.8365 46.6673L31.5927 46.7423C31.2801 46.8421 30.9202 46.942 30.5333 47.0365C30.8958 46.9528 31.2555 46.8547 31.6115 46.7423C26.0334 48.6048 19.9657 48.3545 14.5601 46.0388C9.15442 43.7231 4.78718 39.5032 2.28738 34.1802C0.760944 30.8921 -0.0140433 27.3054 0.0186959 23.6805C0.0186959 23.2443 0.046042 22.8043 0.0993715 22.3628C0.0402091 22.7854 0.00668665 23.2143 0.000189168 23.6486C0.0922735 17.347 2.65941 11.3344 7.14743 6.90948C11.6386 2.48148 17.6923 -0.000623408 23.9993 1.17448e-07C33.3177 1.17448e-07 41.8862 4.46236 45.8798 12.2246C45.9169 12.2988 45.9573 12.3785 46.0006 12.4637C46.6792 13.8018 48.0514 16.5073 47.9985 20.4556C47.9953 22.4622 47.4676 24.4331 46.4678 26.1729C45.468 27.9127 44.0308 29.361 42.2987 30.3741C40.5783 31.3915 38.6164 31.9289 36.6176 31.9303C36.6176 31.9303 36.6149 31.9304 36.6105 31.9306C36.3978 31.9399 31.4645 32.1555 28.8366 30.3178C28.2554 29.9241 27.9366 29.4366 27.9366 28.9491C27.9366 28.4823 28.2389 28.209 28.4454 28.0224Z" fill="white"/>
<path d="M0 23.6618C6.02496e-05 23.6574 0.000123375 23.653 0.000189168 23.6486Z" fill="white"/>
</svg>
