<svg width="48" height="48" viewBox="0 0 48 48" fill="none" xmlns="http://www.w3.org/2000/svg">
<path d="M3.64509 36.3666C3.64509 40.5761 7.08403 43.6051 12.4756 43.6051H28.9538C32.497 43.6051 35.6278 40.7815 35.6278 37.5472C35.6278 34.7236 33.215 32.5169 30.0834 32.5169H11.1916C9.44589 32.5169 8.62437 31.3356 9.34397 29.847H33.0614C41.0696 29.847 48 23.7891 48 16.2418C48 9.87659 42.7636 5 35.6796 5H23.4093C19.6623 5 16.2226 7.20744 14.6313 10.5954L12.0641 16.0881H41.275C42.0965 16.0881 42.6609 16.7043 42.6609 17.4239C42.6609 18.1419 42.0965 18.7573 41.275 18.7573H5.18466L0 29.847H5.64715C4.05585 33.2867 3.64509 34.9799 3.64509 36.3666Z" fill="white"/>
</svg>
