<svg width="48" height="48" viewBox="0 0 48 48" fill="none" xmlns="http://www.w3.org/2000/svg">
<path d="M27.1543 23.7486L31.8336 29.0972L38.1257 33.1182L39.2229 23.7843L38.1257 14.656L31.7129 18.1888L27.1543 23.7486Z" fill="black"/>
<path d="M0 32.2514V40.2057C0 42.0242 1.47291 43.4971 3.29143 43.4971H11.2457L12.8914 37.4848L11.2457 32.2514L5.78742 30.6057L0 32.2514Z" fill="black"/>
<path d="M11.2457 4L0 15.2457L5.78742 16.8914L11.2457 15.2457L12.864 10.0809L11.2457 4Z" fill="black"/>
<path d="M11.2457 15.2457H0V32.2514H11.2457V15.2457Z" fill="black"/>
<path d="M45.3092 8.76161L38.1257 14.656V33.1182L45.3394 39.0345C46.4201 39.8793 48 39.1086 48 37.7372V10.0343C48 8.64367 46.3844 7.88115 45.3092 8.76161ZM27.1543 23.7486V32.2514L11.2457 32.2514V43.4971L34.8343 43.4972C36.6528 43.4972 38.1257 42.0242 38.1257 40.2057V33.1182L27.1543 23.7486Z" fill="black"/>
<path d="M34.8343 4H11.2457V15.2457L27.1543 15.2457V23.7486L38.1257 14.656V7.29143C38.1257 5.47291 36.6528 4 34.8343 4Z" fill="black"/>
</svg>
