<svg width="48" height="49" viewBox="0 0 48 49" fill="none" xmlns="http://www.w3.org/2000/svg">
<path fill-rule="evenodd" clip-rule="evenodd" d="M0 23.28C0 9.906 10.482 0 24 0C37.518 0 48 9.912 48 23.286C48 36.66 37.518 46.566 24 46.566C21.57 46.566 19.242 46.242 17.052 45.642C16.626 45.528 16.17 45.558 15.768 45.738L11.004 47.838C9.756 48.39 8.352 47.502 8.31 46.14L8.178 41.868C8.166 41.34 7.926 40.848 7.536 40.5C2.868 36.324 0 30.276 0 23.28ZM16.638 18.9061L9.58802 30.0901C8.91002 31.1641 10.23 32.3701 11.238 31.6021L18.81 25.8541C19.32 25.4641 20.028 25.4641 20.544 25.8481L26.154 30.0541C27.84 31.3141 30.24 30.8761 31.362 29.0941L38.418 17.9161C39.09 16.8421 37.77 15.6301 36.762 16.3981L29.19 22.1461C28.68 22.5361 27.972 22.5361 27.456 22.1521L21.846 17.9461C20.16 16.6861 17.76 17.1241 16.638 18.9061Z" fill="white"/>
</svg>
