<svg width="48" height="48" viewBox="0 0 48 48" fill="none" xmlns="http://www.w3.org/2000/svg">
<path d="M13.209 2C12.0789 2 11.1628 2.91608 11.1628 4.04613V10.3077H22.6154C24.6546 10.3077 26.3077 11.9608 26.3077 14V34.7691C26.3077 36.8083 24.6546 38.4614 22.6154 38.4614H11.1628V44.6047C11.1628 45.7348 12.0789 46.6509 13.209 46.6509H45.9538C47.0839 46.6509 48 45.7348 48 44.6047L48 4.04613C48 2.91608 47.084 2 45.9539 2H13.209Z" fill="black"/>
<path fill-rule="evenodd" clip-rule="evenodd" d="M2.04614 12.0463H22.5119C23.642 12.0463 24.5581 12.9624 24.5581 14.0925V34.5583C24.5581 35.6883 23.642 36.6044 22.5119 36.6044H2.04614C0.916086 36.6044 0 35.6883 0 34.5583V14.0925C0 12.9624 0.916086 12.0463 2.04614 12.0463ZM8.39676 27.7391C8.43695 28.055 8.46374 28.3297 8.47601 28.5652H8.52288C8.54074 28.3419 8.57794 28.0729 8.63451 27.7581C8.69107 27.4433 8.74205 27.1773 8.78744 26.96L10.9396 17.6748H13.7225L15.9551 26.8204C16.0848 27.3891 16.1776 27.9656 16.233 28.5462H16.2699C16.3115 27.9837 16.389 27.4244 16.502 26.8718L18.2825 17.6703H20.8153L17.6875 30.9763H14.7283L12.6074 22.1644C12.546 21.9111 12.4756 21.5795 12.3986 21.1721C12.3216 20.7646 12.2736 20.4666 12.2546 20.2791H12.2178C12.1932 20.4956 12.1452 20.8171 12.0738 21.2435C12.0023 21.6699 11.945 21.9855 11.9018 22.1901L9.90816 30.9741H6.89868L3.75415 17.6748H6.33273L8.27171 26.9789C8.31527 27.1698 8.35657 27.4243 8.39676 27.7391Z" fill="black"/>
</svg>
