<svg width="48" height="48" viewBox="0 0 48 48" fill="none" xmlns="http://www.w3.org/2000/svg">
<path d="M13.209 2C12.0789 2 11.1628 2.91608 11.1628 4.04613V10.3077H22.6154C24.6546 10.3077 26.3077 11.9608 26.3077 14V34.7691C26.3077 36.8083 24.6546 38.4614 22.6154 38.4614H11.1628V44.6047C11.1628 45.7348 12.0789 46.6509 13.209 46.6509H45.9538C47.0839 46.6509 48 45.7348 48 44.6047L48 4.04613C48 2.91608 47.084 2 45.9539 2H13.209Z" fill="black"/>
<path fill-rule="evenodd" clip-rule="evenodd" d="M2.04613 12.0463H22.5119C23.642 12.0463 24.5581 12.9624 24.5581 14.0925V34.5583C24.5581 35.6883 23.642 36.6044 22.5119 36.6044H2.04613C0.91608 36.6044 0 35.6883 0 34.5583V14.0925C0 12.9624 0.91608 12.0463 2.04613 12.0463ZM6.33716 30.9765L10.6415 24.3067L6.69772 17.6738H9.87017L12.0223 21.9156C12.2211 22.3186 12.3572 22.6178 12.4309 22.8153H12.4588C12.6002 22.4939 12.749 22.1817 12.9053 21.8788L15.206 17.676H18.1183L14.0741 24.2699L18.221 30.9764H15.1223L12.6363 26.3205C12.5192 26.1224 12.4198 25.9143 12.3394 25.6987H12.3026C12.2297 25.9099 12.1331 26.1121 12.0146 26.3015L9.45493 30.9765H6.33716Z" fill="black"/>
</svg>
