<svg width="48" height="48" viewBox="0 0 48 48" fill="none" xmlns="http://www.w3.org/2000/svg">
<path d="M47.4675 26.328L47.4887 26.3157C47.8042 26.1378 47.9996 25.8038 48 25.4417V44.3783C47.9974 44.7833 47.8897 45.1631 47.7029 45.4919L30.897 35.6475L47.4675 26.328Z" fill="black"/>
<path d="M11.1628 38.4616V44.3135C11.1616 45.6032 12.2061 46.6498 13.4959 46.651H45.6949C46.1904 46.6535 46.6736 46.497 47.0735 46.2045L28.8 35.5005C28.7232 35.462 28.6487 35.4191 28.5768 35.3721L26.3078 34.0771V35.8902C26.3078 37.3104 25.1565 38.4616 23.7363 38.4616H11.1628Z" fill="black"/>
<path d="M10.2016 28.3888C9.61147 27.9581 9.15551 27.369 8.88663 26.6898L8.88773 26.692C8.28389 25.1157 8.28707 23.3713 8.89667 21.7971C9.17147 21.1104 9.63609 20.5161 10.2362 20.0836C10.8533 19.6587 11.5892 19.4403 12.3381 19.4597C13.1181 19.4265 13.8856 19.6631 14.5115 20.1294C15.0866 20.5873 15.5163 21.2024 15.7484 21.8998C16.0112 22.6724 16.141 23.4839 16.1324 24.2998C16.143 25.1081 16.0048 25.9114 15.7249 26.6697C15.4746 27.3487 15.0306 27.9394 14.4479 28.3687C13.8058 28.8139 13.0363 29.0381 12.2555 29.0072C11.5224 29.0256 10.8027 28.8089 10.2016 28.3888Z" fill="black"/>
<path fill-rule="evenodd" clip-rule="evenodd" d="M22.512 12.0465H2.04613C0.9161 12.0465 0 12.9626 0 14.0926V34.5585C0 35.6885 0.916074 36.6046 2.04613 36.6046H22.512C23.6421 36.6046 24.5581 35.6886 24.5581 34.5585V14.0926C24.5581 12.9626 23.6421 12.0465 22.512 12.0465ZM8.7326 18.0465C7.7134 18.6548 6.8994 19.5539 6.3951 20.6284C5.84979 21.8095 5.57848 23.0985 5.60144 24.3992C5.57982 25.6412 5.85616 26.8703 6.40739 27.9835C6.92231 29.0114 7.72213 29.8693 8.71139 30.455C9.77848 31.0688 10.9937 31.3777 12.2243 31.348C13.4733 31.3772 14.7064 31.0637 15.7897 30.4416C16.8038 29.8379 17.6187 28.9504 18.1339 27.8887C18.6999 26.705 18.9809 25.4051 18.9544 24.0933C18.9784 22.8381 18.7053 21.595 18.1573 20.4654C17.6542 19.4403 16.8643 18.5833 15.8835 17.9984C14.8404 17.3948 13.6514 17.0893 12.4465 17.1155C11.1464 17.0781 9.86129 17.4003 8.7326 18.0465Z" fill="black"/>
<path d="M45.7674 26.0026V4.12092C45.7936 2.97663 44.8879 2.02742 43.7436 2H15.4192C14.2749 2.02742 13.3691 2.97663 13.3953 4.12092V10.3078H23.7363C25.1565 10.3078 26.3078 11.459 26.3078 12.8792V32.7977C28.0726 33.8043 29.2793 34.4922 29.2912 34.4981L29.9386 34.8776C29.9944 34.8553 30.0502 34.833 30.1172 34.8107C30.1454 34.7919 41.9817 28.1325 45.7674 26.0026Z" fill="black"/>
</svg>
