<svg width="48" height="48" viewBox="0 0 48 48" fill="none" xmlns="http://www.w3.org/2000/svg">
<path d="M18.5227 24C17.1386 24 16.0196 25.119 16.0196 26.503C16.0196 27.8871 17.1386 29.0061 18.5227 29.0061C19.9067 29.0061 21.0257 27.8871 21.0257 26.503C21.0257 25.119 19.9067 24 18.5227 24Z" fill="white"/>
<path d="M24 34.9251C24.9718 34.9251 28.2405 34.8073 29.9484 33.0994C30.2135 32.8638 30.2135 32.4515 29.919 32.157C29.6834 31.892 29.2711 31.892 29.0061 32.157C27.9165 33.2466 25.5902 33.6294 23.9705 33.6294C22.3509 33.6294 20.054 33.276 18.9644 32.1865C18.7288 31.9214 18.3165 31.9214 18.0515 32.1865C17.7865 32.4221 17.7865 32.8343 18.0515 33.0994C19.7595 34.8073 23.0282 34.9251 24 34.9251Z" fill="white"/>
<path d="M27.0037 26.503C27.0037 27.8871 28.1227 29.0061 29.5067 29.0061C30.8908 29.0061 32.0098 27.8871 32.0098 26.503C32.0098 25.119 30.8908 24 29.5067 24C28.1227 24 27.0037 25.119 27.0037 26.503Z" fill="white"/>
<path fill-rule="evenodd" clip-rule="evenodd" d="M48 24C48 37.2548 37.2548 48 24 48C10.7452 48 0 37.2548 0 24C0 10.7452 10.7452 0 24 0C37.2548 0 48 10.7452 48 24ZM36.5153 20.4957C38.4589 20.4957 40.0196 22.0564 40.0196 24C40.0196 25.4429 39.1656 26.6503 37.9583 27.1509C38.0172 27.5043 38.0466 27.8576 38.0466 28.211C38.0466 33.6 31.7742 37.9583 24.0294 37.9583C16.2846 37.9583 10.0123 33.6 10.0123 28.211C10.0123 27.8576 10.0417 27.5043 10.1006 27.1509C8.89323 26.6208 8.03925 25.384 8.03925 23.9705C8.03925 22.027 9.59998 20.4662 11.5435 20.4662C12.4859 20.4662 13.3399 20.849 13.9583 21.438C16.4024 19.6711 19.73 18.5816 23.4699 18.4638L25.2368 10.1006C25.2662 9.95334 25.3546 9.8061 25.5018 9.71776C25.6491 9.62942 25.8257 9.59997 25.973 9.62942L31.8037 10.8662C32.2159 10.0417 33.0699 9.48218 34.0417 9.48218C35.4258 9.48218 36.5448 10.6012 36.5448 11.9852C36.5448 13.3693 35.4258 14.4883 34.0417 14.4883C32.6871 14.4883 31.5975 13.4282 31.5386 12.103L26.3264 10.984L24.7362 18.4932C28.4172 18.611 31.7153 19.73 34.1006 21.4675C34.719 20.8785 35.573 20.4957 36.5153 20.4957Z" fill="white"/>
</svg>
