<svg width="48" height="48" viewBox="0 0 48 48" fill="none" xmlns="http://www.w3.org/2000/svg">
<path fill-rule="evenodd" clip-rule="evenodd" d="M0 8C0 3.58172 3.58172 0 8 0H40C44.4183 0 48 3.58172 48 8V40C48 44.4183 44.4183 48 40 48H8C3.58172 48 0 44.4183 0 40V8ZM20.4094 9.48282L20.039 7.98282C18.43 8.37675 16.8904 9.01376 15.4734 9.87188L16.2656 11.1984C17.5529 10.4219 18.9499 9.84353 20.4094 9.48282ZM27.5906 9.48282L27.9609 7.98282C29.5727 8.37759 31.1152 9.01452 32.5359 9.87188L31.7344 11.1984C30.447 10.4219 29.0501 9.84353 27.5906 9.48282ZM7.9828 20.0391C8.3776 18.4288 9.01454 16.8878 9.87186 15.4688L11.1984 16.2656C10.4219 17.553 9.84351 18.9499 9.4828 20.4094L7.9828 20.0391ZM9.21561 21.7594C9.10316 22.501 9.04675 23.25 9.04686 24C9.04692 24.7501 9.10333 25.499 9.21561 26.2406L7.68749 26.4703C7.43905 24.8312 7.43905 23.1641 7.68749 21.525L9.21561 21.7594ZM31.7344 36.8016L32.5266 38.1234C31.1104 38.981 29.5727 39.6195 27.9656 40.0172L27.5953 38.5172C29.0536 38.1573 30.4491 37.5788 31.7344 36.8016ZM38.7844 26.2406C38.8966 25.499 38.953 24.7501 38.9531 24C38.9532 23.25 38.8968 22.501 38.7844 21.7594L40.3125 21.525C40.5609 23.1641 40.5609 24.8312 40.3125 26.4703L38.7844 26.2406ZM38.5172 27.5859L40.0172 27.9563C39.6232 29.5683 38.9863 31.1109 38.1281 32.5313L36.8015 31.7344C37.5789 30.4458 38.1573 29.0472 38.5172 27.5859ZM21.5297 40.3125L21.7594 38.7844C23.2446 39.0094 24.7553 39.0094 26.2406 38.7844L26.4703 40.3125C24.8328 40.561 23.1672 40.561 21.5297 40.3125ZM32.8687 36.0328C34.0782 35.1437 35.1465 34.0769 36.0375 32.8688L37.2844 33.7969C36.2983 35.1251 35.1197 36.299 33.7875 37.2797L32.8687 36.0328ZM36.0375 15.1313C35.1466 13.9216 34.0784 12.8534 32.8687 11.9625L33.7969 10.7156C35.1263 11.6982 36.3018 12.8737 37.2844 14.2031L36.0375 15.1313ZM15.1312 11.9625C13.9216 12.8534 12.8533 13.9216 11.9625 15.1313L10.7156 14.2031C11.6982 12.8737 12.8736 11.6982 14.2031 10.7156L15.1312 11.9625ZM36.8015 16.2656L38.1281 15.4688C38.9854 16.8862 39.6223 18.4256 40.0172 20.0344L38.5172 20.4047C38.1572 18.9464 37.5788 17.5509 36.8015 16.2656ZM26.2406 9.21563C24.7553 8.9906 23.2446 8.9906 21.7594 9.21563L21.5297 7.68751C23.1672 7.43904 24.8328 7.43904 26.4703 7.68751L26.2406 9.21563ZM9.56248 38.4328L12.7547 37.6922L13.1062 39.2063L9.91405 39.9422C9.68251 39.9938 9.44246 39.9938 9.21092 39.9422C9.01294 39.8959 8.82604 39.8109 8.6609 39.6923C8.49577 39.5737 8.35564 39.4236 8.24854 39.2508C8.14144 39.078 8.06947 38.8857 8.03674 38.685C8.00401 38.4843 8.01116 38.2792 8.0578 38.0813L8.80311 34.8891L10.3078 35.2406L9.56248 38.4328ZM10.6312 33.8578L9.12186 33.5109L9.50155 31.8797C8.83056 30.6418 8.3202 29.3233 7.9828 27.9563L9.4828 27.5859C9.83305 29.0141 10.3939 30.3822 11.1469 31.6453L10.6312 33.8578ZM14.1281 37.3734L16.3406 36.8578L16.3547 36.8484C17.613 37.6031 18.9763 38.167 20.4 38.5219L20.0297 40.0219C18.6619 39.6866 17.3432 39.1761 16.1062 38.5031L14.4797 38.8828L14.1281 37.3734ZM10.5984 24.0047C10.5984 16.6031 16.5937 10.5984 24 10.5938C26.5326 10.5931 29.0139 11.308 31.1578 12.6563C37.4203 16.6031 39.2953 24.8813 35.3531 31.1438C31.4109 37.4063 23.1328 39.2859 16.8656 35.3438L11.3672 36.6328L12.6562 31.1297C11.3156 28.9947 10.6025 26.5257 10.5984 24.0047Z" fill="white"/>
</svg>
