<svg width="48" height="48" viewBox="0 0 48 48" fill="none" xmlns="http://www.w3.org/2000/svg">
<path d="M38.1697 17.6087L42.1662 16.8975V32.2314H38.1697V17.6087ZM44.0035 17.6087V32.223H48V16.8975L44.0035 17.6087ZM32.4883 32.223H36.4847V21.0125H32.4883V32.223ZM6.07938 22.5959C5.57135 22.562 4.40289 22.4858 4.40289 21.4359C4.40289 20.1658 6.08785 20.1658 6.71441 20.1658C7.8236 20.1658 9.26301 20.496 10.2875 20.8008C10.2875 20.8008 10.8633 21.0041 11.3459 21.2073L11.3883 21.2157V21.1734V17.7442L11.329 17.7273C10.1182 17.3039 8.71265 16.8975 6.09631 16.8975C1.59182 16.8975 0 19.5223 0 21.7661C0 23.0616 0.558829 26.1097 5.71529 26.4653C6.15558 26.4907 7.31558 26.5585 7.31558 27.6507C7.31558 28.5482 6.36726 29.0817 4.76698 29.0817C3.01429 29.0817 1.32087 28.6329 0.287881 28.2096V31.7911C1.82889 32.1976 3.57312 32.4008 5.61369 32.4008C10.0166 32.4008 11.9894 29.9199 11.9894 27.456C11.9894 24.6618 9.78797 22.8499 6.07938 22.5959ZM30.236 20.8516C26.5444 20.9702 24.6731 22.6297 24.6731 25.9234V32.2314H28.7035V27.0834C28.7035 25.1106 28.9575 24.2639 31.3029 24.1877V20.9025C30.8965 20.8262 30.236 20.8516 30.236 20.8516ZM19.3981 21.0041C19.3135 21.2242 18.67 23.0362 17.1205 24.9074V16.8975L12.997 17.7104V32.223H17.1205V27.7354C18.3143 29.5304 18.907 32.223 18.907 32.223H23.8434C23.3523 30.1909 21.2186 26.4484 21.2186 26.4484C23.1321 24.0183 23.9788 21.4274 24.1143 20.9956H19.3981V21.0041ZM34.478 19.9372C35.5618 19.9372 36.4509 19.0566 36.4509 17.9728C36.4509 16.889 35.5703 16 34.478 16C33.3943 16 32.5137 16.8806 32.5137 17.9728C32.5137 19.0566 33.3943 19.9372 34.478 19.9372Z" fill="white"/>
</svg>
