<svg width="48" height="48" viewBox="0 0 48 48" fill="none" xmlns="http://www.w3.org/2000/svg">
<path d="M26.5583 26.2109V26.2187C32.4039 25.9563 36.7679 24.9376 36.7679 23.7183C36.7679 22.499 32.4078 21.4804 26.5583 21.218V25.2C26.3885 25.2154 25.4779 25.2926 23.6567 25.2926C22.1403 25.2926 21.0406 25.227 20.6586 25.2V21.2141C14.8013 21.4727 10.4258 22.4952 10.4258 23.7145C10.4258 24.9376 14.7975 25.9563 20.6586 26.2148V26.2109C21.0367 26.2302 22.1055 26.2727 23.6296 26.2727C25.5358 26.2727 26.3923 26.2225 26.5583 26.2109Z" fill="black"/>
<path fill-rule="evenodd" clip-rule="evenodd" d="M48 24C48 37.2548 37.2548 48 24 48C10.7452 48 0 37.2548 0 24C0 10.7452 10.7452 0 24 0C37.2548 0 48 10.7452 48 24ZM26.5583 17.2399V20.8051L26.5621 20.809C33.1833 21.1138 38.1608 22.4296 38.1608 24C38.1608 25.5743 33.1833 26.8862 26.5621 27.191V38.6199H20.6624V27.191C14.0335 26.8823 9.04443 25.5704 9.04443 23.9961C9.04443 22.4219 14.0296 21.11 20.6624 20.8051V17.2399H12.5017V11.8032H34.719V17.2399H26.5583Z" fill="black"/>
</svg>
