<svg width="48" height="48" viewBox="0 0 48 48" fill="none" xmlns="http://www.w3.org/2000/svg">
<path fill-rule="evenodd" clip-rule="evenodd" d="M40.6573 7.15101C36.2187 2.71924 30.3277 0.273662 24.0516 0.266907C11.1144 0.266907 0.582189 10.7991 0.575433 23.7364C0.575433 27.8709 1.65635 31.9041 3.7101 35.4643L0.379517 47.6247L12.8236 44.3617C16.2638 46.2376 20.1197 47.2202 24.0381 47.2193H24.0516C36.9889 47.2193 47.5143 36.6939 47.5211 23.7499C47.5279 17.4805 45.089 11.5895 40.6573 7.15101ZM16.1812 35.0995C16.3433 35.2009 16.6811 35.2009 17.4648 35.2009C20.7684 35.1941 23.6193 35.1874 25.646 35.1874C35.1176 35.1874 34.8676 25.2159 30.4426 23.9728C31.0911 22.8243 34.0434 20.6625 32.2193 16.2037C30.4088 11.7922 22.6397 12.7921 17.3229 12.7921C15.357 12.7921 15.6475 14.2513 15.661 16.5077C15.6745 20.0883 15.661 29.776 15.661 33.9646C15.661 34.809 15.9177 34.9441 16.1812 35.0995ZM20.2752 31.4447H25.092C27.139 31.4379 28.9631 30.4854 28.9158 28.4451C28.882 26.5265 27.6052 25.8914 25.8284 25.7158C24.1395 25.7361 22.2073 25.7361 20.2752 25.7361V31.4447ZM20.2752 21.8785C23.8422 21.8312 25.2136 22.0204 27.1593 21.534C28.4969 20.7773 29.0779 17.9602 27.166 17.0076C25.8352 16.3456 21.9101 16.5685 20.2752 16.6361V21.8785ZM24.0516 43.2537H24.0381C20.5387 43.2537 17.1067 42.3147 14.1139 40.5379L13.3978 40.1123L6.01381 42.0512L7.98648 34.8563L7.52034 34.1132C5.5682 31.0046 4.53533 27.4071 4.54105 23.7364C4.54105 12.9812 13.2965 4.23253 24.0584 4.23253C29.2671 4.23253 34.165 6.26601 37.8469 9.95464C41.5355 13.6365 43.5622 18.5412 43.5622 23.7499C43.5555 34.505 34.8 43.2537 24.0516 43.2537Z" fill="white"/>
</svg>
