<svg width="48" height="48" viewBox="0 0 48 48" fill="none" xmlns="http://www.w3.org/2000/svg">
<path d="M47.9983 9.5177C47.9983 9.68569 47.9469 9.83997 47.8372 9.98054C47.7309 10.1177 47.6143 10.1897 47.4857 10.1897C46.4366 10.2891 45.5744 10.6302 44.9058 11.2096C44.2373 11.789 43.5464 12.8947 42.8316 14.5267L31.936 39.0692C31.864 39.2972 31.6617 39.4121 31.336 39.4121C31.2149 39.4143 31.0953 39.3837 30.9903 39.3233C30.8852 39.2629 30.7985 39.1751 30.7395 39.0692L24.6231 26.3188L17.6017 39.0641C17.5424 39.1704 17.4551 39.2586 17.3494 39.319C17.2437 39.3794 17.1234 39.4098 17.0017 39.4069C16.6897 39.4069 16.4823 39.2921 16.3846 39.0641L5.68266 14.5267C5.01411 12.9941 4.30785 11.9245 3.56731 11.3159C2.83019 10.7074 1.80166 10.332 0.474848 10.188C0.36171 10.188 0.251999 10.1245 0.154289 10.0062C0.054129 9.89268 -0.000781041 9.74626 8.39531e-06 9.59484C8.39531e-06 9.20742 0.113147 9.012 0.342853 9.012C1.29596 9.012 2.29707 9.05486 3.33589 9.14057C4.30443 9.22628 5.21639 9.26399 6.07179 9.26399C6.9409 9.26399 7.96601 9.22113 9.15054 9.13542C10.2458 9.05462 11.3436 9.01117 12.4418 9.00514C12.6681 9.00514 12.7813 9.20228 12.7813 9.59484C12.7813 9.98568 12.7127 10.1811 12.5687 10.1811C11.6139 10.2497 10.863 10.4948 10.3145 10.9096C9.76594 11.3262 9.49167 11.8696 9.49167 12.5433C9.49167 12.8861 9.60652 13.3147 9.83451 13.829L18.5633 33.8511L23.6889 24.32L19.0056 14.5181C18.1656 12.7559 17.4731 11.621 16.9314 11.1136C16.3914 10.6045 15.572 10.2942 14.4766 10.1794C14.3738 10.1794 14.2778 10.1194 14.1852 10.0011C14.0935 9.88386 14.045 9.73853 14.0481 9.58969C14.0481 9.20228 14.1458 9.00686 14.3464 9.00686C15.2995 9.00686 16.1754 9.048 16.9743 9.13371C17.7422 9.21942 18.5616 9.26056 19.4307 9.26056C20.2844 9.26056 21.1878 9.21599 22.1426 9.13028C23.1083 9.04488 24.0771 9.00141 25.0465 9C25.2745 9 25.3894 9.19714 25.3894 9.58798C25.3894 9.98225 25.3174 10.1742 25.1751 10.1742C23.2672 10.3028 22.3124 10.8462 22.3124 11.8062C22.3124 12.2347 22.5352 12.9033 22.974 13.805L26.0699 20.0876L29.1555 14.3535C29.5807 13.5358 29.7949 12.8484 29.7949 12.2896C29.7949 10.9731 28.8401 10.272 26.9322 10.1862C26.7608 10.1862 26.6751 9.98568 26.6751 9.59312C26.6751 9.45598 26.7179 9.31885 26.8036 9.19542C26.8893 9.06857 26.975 9.00686 27.0608 9.00686C27.7464 9.00686 28.5864 9.048 29.5807 9.13371C30.5355 9.21942 31.3189 9.26228 31.9291 9.26228C32.3714 9.26228 33.0194 9.22799 33.8748 9.15942C34.9548 9.06 35.8633 9.01029 36.5867 9.01029C36.7581 9.01029 36.8438 9.17657 36.8438 9.51255C36.8438 9.95825 36.6861 10.1845 36.3741 10.1845C35.2685 10.296 34.3685 10.6028 33.6999 11.1034C33.0211 11.6056 32.1777 12.7439 31.1663 14.5147L27.0693 22.1087L32.6166 33.4226L40.8277 14.3467C41.1122 13.6438 41.2562 12.9993 41.2562 12.413C41.2562 11.0074 40.2997 10.2651 38.3935 10.1794C38.2221 10.1794 38.1364 9.98225 38.1364 9.58969C38.1364 9.20056 38.2632 9.00686 38.5203 9.00686C39.2163 9.00686 40.0409 9.04971 40.9957 9.13542C41.8785 9.21771 42.6191 9.26056 43.2173 9.26056C43.843 9.26056 44.5716 9.21599 45.3944 9.132C46.2481 9.04628 47.016 9.00171 47.7 9.00171C47.9006 9.00171 48 9.16799 48 9.50398L47.9983 9.5177Z" fill="black"/>
</svg>
