<svg width="48" height="48" viewBox="0 0 48 48" fill="none" xmlns="http://www.w3.org/2000/svg">
<path d="M14.6782 20.1697L23.9997 10.8486L33.3262 20.1746L38.7501 14.7507L23.9997 0L9.25428 14.7458L14.6782 20.1697Z" fill="white"/>
<path d="M10.8479 23.9988L5.42408 18.575L0 23.9991L5.42381 29.4229L10.8479 23.9988Z" fill="white"/>
<path d="M23.9997 37.1507L14.6782 27.8296L9.24634 33.2463L23.9997 47.9993L38.7501 33.2489L38.7527 33.2459L33.3258 27.825L23.9997 37.1507Z" fill="white"/>
<path d="M42.5759 29.4254L48 24.0014L42.5762 18.5775L37.1521 24.0016L42.5759 29.4254Z" fill="white"/>
<path d="M29.5036 23.9968H29.5013L29.5063 23.9995L29.5036 24.0025L23.9997 29.5064L18.5008 24.0074L18.4932 23.9995L23.9997 18.4929L29.5036 23.9968Z" fill="white"/>
</svg>
