<svg width="48" height="48" viewBox="0 0 48 48" fill="none" xmlns="http://www.w3.org/2000/svg">
<path fill-rule="evenodd" clip-rule="evenodd" d="M41.1261 10.2277C42.732 11.058 44.7826 13.6844 45.7936 16.1169L45.7912 16.1133C47.2608 19.8226 47.7796 23.8406 47.3004 27.8016C47.2916 27.8782 47.283 27.9544 47.2744 28.0304C47.249 28.2551 47.2239 28.4777 47.1947 28.702C46.2 34.4387 43.0907 39.5939 38.4807 43.1501C33.8707 46.7063 28.095 48.4051 22.2937 47.911C16.4925 47.4169 11.0873 44.7658 7.14511 40.4812C3.20293 36.1966 1.01028 30.5898 1 24.7675V24.6475C1.04774 23.5705 1.17394 22.4985 1.3776 21.4399C1.37822 21.434 1.37905 21.4281 1.37987 21.4223C1.38145 21.4113 1.38301 21.4004 1.38301 21.3889C1.41002 21.1662 1.5679 20.1409 1.61173 19.9361L1.64294 19.7825C2.20797 17.2501 3.26893 14.8548 4.76462 12.7347C5.41547 11.8056 6.14301 10.9333 6.93958 10.1257C7.6386 9.4105 8.39958 8.7586 9.2136 8.17765C9.45723 8.0131 9.71763 7.87486 9.99041 7.76523C9.93759 8.57026 9.87275 12.4243 10.7948 13.5931H10.8057C12.3528 11.7783 14.2598 10.3045 16.406 9.26483C15.9188 11.1322 15.9414 13.096 16.4715 14.9517C16.6776 15.091 16.8761 15.2413 17.0661 15.4019C17.0663 15.4017 17.0658 15.4021 17.0661 15.4019C17.383 15.67 17.7355 16.0191 18.4084 16.683C18.4888 16.7624 18.5739 16.8463 18.664 16.9351C19.7259 17.9812 21.9052 19.0527 23.2213 19.6996C23.862 20.0146 24.298 20.229 24.301 20.2909L24.3022 20.2957C24.2638 20.8744 22.2191 22.8705 21.5041 22.8705C14.8885 22.8705 13.814 26.8728 13.814 26.8728C14.1069 30.243 16.4554 33.0201 19.2943 34.4849C19.424 34.5521 19.5554 34.6128 19.6869 34.6722C19.9146 34.773 20.1424 34.8663 20.3701 34.9519C21.3444 35.2967 22.3649 35.4936 23.3975 35.5361C34.9957 36.0799 37.2409 21.6686 28.8718 17.4844C30.846 17.2275 32.8453 17.7129 34.4818 18.8465C33.4596 17.0426 31.978 15.5415 30.1876 14.4958C28.3972 13.4501 26.3618 12.8971 24.2884 12.8931C24.0552 12.8931 23.8264 12.9094 23.5975 12.9257C23.5575 12.9285 23.5175 12.9313 23.4775 12.9341C23.6593 9.76282 25.6443 3.43401 31.4855 0.0138756L31.4765 0.0294839C31.4791 0.0283354 31.4822 0.0265003 31.4852 0.0247667C31.4884 0.0228757 31.4914 0.0211055 31.4933 0.0204791C31.4949 0.0199403 31.4968 0.018555 31.4986 0.0171916C31.5009 0.0155171 31.5031 0.0138756 31.5047 0.0138756C31.5191 0.00994187 31.5342 0.00994187 31.5486 0.0138756C31.5632 0.0156451 31.5767 0.022743 31.5864 0.0338152C31.5962 0.0448875 31.6015 0.0591591 31.6014 0.0739077C31.6808 0.393522 31.7973 0.702777 31.9484 0.995401C32.0198 1.14128 32.1021 1.29976 32.2047 1.47566C32.3842 1.78362 32.5685 2.07538 32.7528 2.36654C34.2205 4.68535 35.8205 6.49969 37.3799 8.26811C39.6922 10.8903 41.9155 13.4114 43.4866 17.3265L43.4823 17.2875C43.0661 14.8267 42.2712 12.4453 41.1261 10.2277ZM19.1045 34.3942C19.0625 34.3728 19.0204 34.3514 18.9772 34.3307C19.0901 34.3891 19.2029 34.4453 19.3158 34.4993L19.2996 34.4891C19.2323 34.4591 19.1684 34.4266 19.1045 34.3942ZM43.4872 17.3109V17.3332L43.4914 17.3356L43.4872 17.3109Z" fill="white"/>
</svg>
