<svg width="49" height="48" viewBox="0 0 49 48" fill="none" xmlns="http://www.w3.org/2000/svg">
<path d="M18.772 9.50904L18.7752 9.50594C21.4037 7.59135 24.6398 6.46183 28.1403 6.46183C30.0967 6.46183 31.9571 6.76613 33.6851 7.41652C33.7972 7.457 33.9456 7.48247 34.013 7.48247C34.4262 7.48247 34.7295 7.1989 34.732 6.79731C34.733 6.52436 34.5976 6.29679 34.4226 6.13534C29.8451 1.92057 24.9826 0.180176 24.9826 0.180176C14.1308 4.5195 6.15102 15.0133 5.9223 27.0061C5.82419 30.4176 6.63897 33.897 8.47079 37.0697C9.55737 38.9526 10.9179 40.5804 12.4704 41.9306C9.49909 40.608 6.90425 38.3703 5.15324 35.3396C4.17472 33.6444 3.50687 31.8818 3.20584 30.0616C3.18593 29.9446 3.13483 29.8025 3.10038 29.7451C2.89485 29.3875 2.49685 29.2653 2.14815 29.4664C1.90997 29.5999 1.78198 29.8324 1.73072 30.0632C0.36792 36.1346 1.29289 41.2167 1.29289 41.2167C10.6102 48.5496 23.9403 50.1538 34.5173 44.0498C39.4925 41.1758 42.6847 36.3988 43.7004 31.1699L43.7038 31.1766C44.047 34.4117 43.4053 37.7756 41.6557 40.8098C40.6779 42.5033 39.4848 43.9624 38.0588 45.1363C37.9663 45.2124 37.8698 45.3278 37.8362 45.3851C37.63 45.7417 37.7239 46.1473 38.0703 46.3499C38.307 46.4887 38.5706 46.4831 38.7967 46.4108C44.7372 44.5562 48.6746 41.2153 48.6746 41.2153C50.3384 29.6824 45.273 17.5587 35.0616 11.3479C30.2666 8.36973 24.2744 7.60539 18.772 9.50904V9.50904ZM40.4952 23.9967C40.6483 24.7619 40.7335 25.5484 40.7335 26.3482C40.7335 33.8738 33.6828 39.9716 24.9834 39.9716C16.2836 39.9716 9.23283 33.8736 9.23283 26.3482C9.23283 25.5484 9.31707 24.7619 9.47101 23.9967C12.7401 20.6444 18.4628 18.4167 24.9833 18.4167C31.5026 18.4167 37.226 20.6444 40.4952 23.9967Z" fill="white"/>
<path d="M22.074 20.6641C23.285 21.0894 24.1541 22.2422 24.1541 23.5992C24.1541 25.3174 22.7639 26.7076 21.0459 26.7076C19.6889 26.7076 18.5354 25.8403 18.1115 24.6265C17.7214 25.5471 17.5212 26.537 17.523 27.5369C17.523 31.6594 20.8637 34.9966 24.9836 34.9966C29.1043 34.9966 32.4439 31.6594 32.4439 27.5369C32.4439 23.4162 29.1034 20.0754 24.9836 20.0754C23.9841 20.0748 22.9947 20.275 22.074 20.6641V20.6641Z" fill="white"/>
</svg>
