<svg width="48" height="49" viewBox="0 0 48 49" fill="none" xmlns="http://www.w3.org/2000/svg">
<path d="M23.9976 0C10.7426 0 0 10.7473 0 24.0024C0 36.8753 10.1359 47.379 22.8608 47.9761C23.2429 47.9952 23.6203 48.0048 24.0024 48.0048C30.1499 48.0048 35.7528 45.6929 39.9992 41.8955C37.1858 43.7632 33.8947 44.8331 30.3791 44.8331C24.6616 44.8331 19.5458 41.9958 16.1019 37.5249C13.4461 34.3963 11.7265 29.763 11.6119 24.566C11.6119 24.5517 11.6119 23.4483 11.6119 23.434C11.7265 18.2418 13.4461 13.6085 16.0971 10.4751C19.541 6.00418 24.6616 3.17166 30.3791 3.17166C33.8947 3.17166 37.1858 4.24639 39.9992 6.11404C35.7719 2.33098 30.2024 0.023883 24.0884 0C24.0597 0 24.0263 0 23.9976 0Z" fill="white"/>
<path d="M16.0972 10.4752C18.304 7.8767 21.146 6.30998 24.2556 6.30998C31.2438 6.30998 36.9088 14.2343 36.9088 24.0025C36.9088 33.7754 31.2438 41.695 24.2556 41.695C21.146 41.695 18.304 40.1283 16.1019 37.5298C19.5459 42.0007 24.6616 44.838 30.3792 44.838C33.8948 44.838 37.1858 43.7633 39.9992 41.9004C44.9096 37.5011 48 31.1148 48 24.0025C48 16.8949 44.9096 10.5038 39.9945 6.10936C37.1811 4.24171 33.8948 3.17175 30.3792 3.17175C24.6616 3.17175 19.5459 6.00905 16.1019 10.4799" fill="white"/>
</svg>
