<svg width="48" height="48" viewBox="0 0 48 48" fill="none" xmlns="http://www.w3.org/2000/svg">
<path fill-rule="evenodd" clip-rule="evenodd" d="M39.5162 8.96641L39.5253 8.96799C39.6939 8.99874 39.9127 9.11234 39.9405 9.3624C39.9574 9.51497 41.8335 22.2041 43.3343 32.3545C44.3352 39.1243 45.1692 44.765 45.1732 44.8038L30.3518 48L3 42.8804C3 42.8804 6.50737 15.7266 6.64879 14.7366C6.8185 13.4638 6.87507 13.4355 8.20448 13.0112C8.3271 12.9805 8.88159 12.8087 9.74646 12.5407C10.4776 12.3141 11.4307 12.0187 12.5321 11.6818C13.4655 7.75015 16.4072 0.0282852 22.6017 0C23.3936 0 24.327 0.452563 25.0907 1.44255H25.317C27.9758 1.44255 29.5032 3.70536 30.3235 6.16618C31.2004 5.88332 31.7378 5.71361 31.7661 5.71361C31.9348 5.67142 32.2767 5.61348 32.557 5.70415C32.6492 5.72928 32.7372 5.77957 32.8126 5.85501C33.0593 6.12914 35.4846 8.52864 35.6339 8.67643L35.6411 8.68356C35.6411 8.68356 35.8727 8.69947 36.2227 8.72378C37.2728 8.7967 39.3889 8.9452 39.5162 8.96641ZM27.1432 7.1642C27.7508 6.98404 28.319 6.81556 28.8244 6.64707C28.2587 4.86511 27.3253 3.30942 25.9393 3.11142C26.2787 4.07312 26.505 5.31767 26.505 6.84507V7.3542C26.7218 7.28918 26.9348 7.226 27.1432 7.1642ZM24.2705 3.42242C24.6382 4.38412 24.8928 5.74181 24.8928 7.58035V7.83491C23.3937 8.28746 21.7533 8.79656 20.1128 9.30567C21.0462 5.79831 22.7714 4.07298 24.2705 3.42242ZM23.2239 1.95163C22.9694 1.78192 22.6865 1.69707 22.4319 1.69707C17.9912 1.69707 15.5021 7.52382 14.4272 11.0878C15.6152 10.72 16.9163 10.3241 18.2174 9.92806C19.1226 5.23272 21.244 2.88504 23.2239 1.95163ZM23.4784 22.5999L25.317 17.1691C25.317 17.1691 24.1007 16.462 21.555 16.4337C15.0777 16.4337 11.8532 20.7896 11.8532 25.2587C11.8532 28.2426 13.5276 29.5966 14.9972 30.7852C16.1466 31.7147 17.1708 32.543 17.1708 33.9705C17.1708 34.7625 16.6051 35.8374 15.2474 35.8374C13.1543 35.8374 10.6935 33.716 10.6935 33.716L9.44897 37.8739C9.44897 37.8739 11.8532 40.7873 16.5486 40.7873C20.4519 40.7873 23.3653 37.8456 23.3653 33.2634C23.3653 29.7397 20.9964 28.0056 19.1238 26.6348C17.8999 25.7388 16.888 24.998 16.888 24.0142C16.888 23.5616 17.0294 21.7513 19.9145 21.7513C21.8662 21.7513 23.4784 22.5999 23.4784 22.5999Z" fill="black"/>
</svg>
