<svg width="48" height="48" viewBox="0 0 48 48" fill="none" xmlns="http://www.w3.org/2000/svg">
<path fill-rule="evenodd" clip-rule="evenodd" d="M24 48C10.7452 48 0 37.2548 0 24C0 10.7452 10.7452 0 24 0C37.2548 0 48 10.7452 48 24C48 37.2548 37.2548 48 24 48ZM36.064 26.7176C36.2491 25.8837 36.3454 25.0201 36.3454 24.1328C36.3454 17.4854 30.8802 12.0947 24.1355 12.0947C23.425 12.0947 22.7281 12.1556 22.0478 12.2713C20.9565 11.5932 19.6651 11.2 18.2818 11.2C14.3699 11.2 11.2 14.3249 11.2 18.1828C11.2 19.4707 11.5552 20.6755 12.1723 21.7142C12.0113 22.4947 11.9255 23.3048 11.9255 24.1328C11.9255 30.7832 17.3923 36.1724 24.1355 36.1724C24.9001 36.1724 25.6467 36.1026 26.3722 35.9706C27.3701 36.4988 28.508 36.8 29.7197 36.8C33.6301 36.8 36.8 33.6736 36.8 29.8187C36.8 28.7044 36.5351 27.6524 36.064 26.7176Z" fill="black"/>
<path fill-rule="evenodd" clip-rule="evenodd" d="M30.3985 29.887C29.834 30.6764 29.0002 31.2996 27.9164 31.7417C26.8463 32.1809 25.5639 32.405 24.1023 32.405C22.3488 32.405 20.8782 32.1008 19.7298 31.4999C18.9095 31.0636 18.2337 30.4731 17.7204 29.7401C17.2011 29.0041 16.9392 28.2726 16.9392 27.5648C16.9392 27.1256 17.1108 26.7428 17.448 26.4297C17.7821 26.1181 18.2111 25.9623 18.7228 25.9623C19.1413 25.9623 19.504 26.0855 19.7975 26.3303C20.079 26.5662 20.3198 26.9149 20.514 27.3615C20.7307 27.8512 20.9655 28.2637 21.2139 28.5857C21.4547 28.9002 21.7994 29.1629 22.2389 29.3691C22.6814 29.5739 23.279 29.6807 24.012 29.6807C25.022 29.6807 25.8498 29.4671 26.4715 29.0486C27.0811 28.6406 27.3761 28.148 27.3761 27.5455C27.3761 27.0722 27.2211 26.6983 26.905 26.4045C26.5708 26.0988 26.1328 25.8614 25.6015 25.6952C25.0461 25.5261 24.2935 25.3406 23.3618 25.1477C22.0929 24.8806 21.0167 24.5646 20.1618 24.204C19.2858 23.8375 18.5798 23.3286 18.0636 22.692C17.5398 22.0436 17.2734 21.232 17.2734 20.2779C17.2734 19.3698 17.5518 18.5493 18.1027 17.843C18.6476 17.1411 19.4453 16.5921 20.4734 16.2197C21.4863 15.8502 22.6905 15.6633 24.0557 15.6633C25.1454 15.6633 26.1042 15.7879 26.905 16.0342C27.7102 16.2805 28.3876 16.6129 28.9204 17.0239C29.4577 17.4394 29.8581 17.8801 30.108 18.34C30.3608 18.8045 30.4903 19.2659 30.4903 19.7126C30.4903 20.1429 30.3217 20.5346 29.9891 20.8744C29.6549 21.2186 29.232 21.3922 28.7353 21.3922C28.2837 21.3922 27.9285 21.2824 27.6846 21.0688C27.4559 20.8684 27.218 20.5568 26.9546 20.1117C26.6506 19.5419 26.2818 19.0923 25.8589 18.7748C25.448 18.4662 24.7631 18.3119 23.8194 18.3119C22.9464 18.3119 22.2329 18.484 21.7046 18.8267C21.1958 19.1547 20.9475 19.533 20.9475 19.9811C20.9475 20.2541 21.0273 20.4841 21.1928 20.68C21.3644 20.8907 21.6098 21.0717 21.9198 21.226C22.2404 21.3848 22.5716 21.5124 22.9027 21.6014C23.2414 21.6949 23.8103 21.8329 24.5915 22.011C25.5804 22.2187 26.488 22.4546 27.2903 22.7084C28.1046 22.9636 28.806 23.2781 29.381 23.6476C29.965 24.023 30.4271 24.5037 30.7567 25.0795C31.0863 25.6596 31.2534 26.3719 31.2534 27.2013C31.2534 28.1925 30.9644 29.0961 30.3985 29.887V29.887V29.887Z" fill="black"/>
</svg>
