<svg width="48" height="48" viewBox="0 0 48 48" fill="none" xmlns="http://www.w3.org/2000/svg">
<path fill-rule="evenodd" clip-rule="evenodd" d="M4.95942 0H42.9843C44.3195 0.00244381 45.5989 0.529248 46.5399 1.46412C47.4809 2.39899 48.0063 3.66505 47.9999 4.98281V43.0172C48.0131 45.7509 45.7823 47.9796 43.0125 48H4.98755C2.21769 47.9796 -0.0131079 45.7509 5.93821e-05 43.0172V4.98281C-0.0132146 2.2598 2.20058 0.0355307 4.95942 0ZM4.15793 24C4.0842 34.8804 12.9561 43.7628 23.9813 43.8468C35.012 43.7704 43.8925 34.8858 43.8188 24C43.8925 13.1141 35.012 4.22946 23.9813 4.15308C12.9561 4.23708 4.0842 13.1195 4.15793 24Z" fill="white"/>
<path d="M42.6667 23.9976L28.709 17.3334L29.8304 21.6035H18.1697L19.291 17.3334L5.33337 24.0025L19.3006 30.6667L18.1792 26.3966H29.8399L28.7185 30.6667L42.6667 24.0025" fill="white"/>
</svg>
