<svg width="48" height="48" viewBox="0 0 48 48" fill="none" xmlns="http://www.w3.org/2000/svg">
<path d="M23.6685 11.7286C23.6685 11.8876 23.5096 11.8876 23.5096 11.8876H23.3507C23.1917 11.8876 23.1917 11.7286 23.0328 11.5697C23.0328 11.5697 22.8739 11.4108 22.8739 11.2519C22.8739 11.0929 22.8739 11.0929 23.0328 11.0929L23.3507 11.2519C23.5096 11.4108 23.6685 11.5697 23.6685 11.7286ZM20.8079 10.1394C20.8079 9.34477 20.49 8.86799 20.0132 8.86799C20.0132 8.86799 20.0132 9.02692 19.8543 9.02692V9.34477H20.3311C20.3311 9.66261 20.49 9.82154 20.49 10.1394H20.8079ZM26.3702 9.34477C26.6881 9.34477 26.847 9.66261 27.0059 10.1394H27.3238C27.1649 9.98046 27.1649 9.82154 27.1649 9.66261C27.1649 9.50369 27.1649 9.34477 27.0059 9.18584C26.847 9.02692 26.6881 8.86799 26.5292 8.86799C26.5292 8.86799 26.3702 9.02692 26.2113 9.02692C26.2113 9.18584 26.3702 9.18584 26.3702 9.34477ZM21.6025 11.8876C21.4436 11.8876 21.4436 11.8876 21.4436 11.7286C21.4436 11.5697 21.4436 11.4108 21.6025 11.2519C21.9203 11.2519 22.0793 11.0929 22.0793 11.0929C22.2382 11.0929 22.2382 11.2519 22.2382 11.2519C22.2382 11.4108 22.0793 11.5697 21.7614 11.8876H21.6025ZM19.8543 11.7286C19.2186 11.4108 19.0597 10.934 19.0597 10.1394C19.0597 9.66261 19.0597 9.34477 19.3775 9.02692C19.5365 8.70907 19.8543 8.55014 20.1722 8.55014C20.49 8.55014 20.6489 8.70907 20.9668 9.02692C21.1257 9.50369 21.2846 9.98046 21.2846 10.4572V10.6162V10.7751H21.4436V10.6162C21.6025 10.6162 21.6025 10.2983 21.6025 9.66261C21.6025 9.18584 21.6025 8.70907 21.2846 8.23229C20.9668 7.75552 20.6489 7.43767 20.0132 7.43767C19.5365 7.43767 19.0597 7.75552 18.9008 8.23229C18.5829 8.86799 18.5194 9.34477 18.5194 10.1394C18.5194 10.7751 18.7418 11.4108 19.3775 12.0465C19.5365 11.8876 19.6954 11.8876 19.8543 11.7286ZM39.7199 34.137C39.8788 34.137 39.8788 34.0734 39.8788 33.9304C39.8788 33.5808 39.7199 33.1676 39.2431 32.7067C38.7663 32.2299 37.9717 31.928 37.0182 31.8008C36.8593 31.7849 36.7003 31.7849 36.7003 31.7849C36.5414 31.7531 36.5414 31.7531 36.3825 31.7531C36.2236 31.7372 35.9057 31.7055 35.7468 31.6737C36.2236 30.1957 36.3825 28.8925 36.3825 27.7482C36.3825 26.159 36.0646 25.0465 35.4289 24.093C34.7932 23.1394 34.1575 22.6626 33.3629 22.5037C33.204 22.6626 33.204 22.6626 33.204 22.8216C33.9986 23.1394 34.7932 23.7751 35.27 24.7287C35.7468 25.8411 35.9057 26.7947 35.9057 27.9072C35.9057 28.7971 35.7468 30.1162 35.1111 31.8008C34.4754 32.0551 33.8397 32.6431 33.3629 33.5649C33.3629 33.7079 33.3629 33.7874 33.5218 33.7874C33.5218 33.7874 33.6808 33.6443 33.8397 33.3742C34.1575 33.104 34.3165 32.8338 34.6343 32.5637C35.1111 32.2935 35.4289 32.1504 35.9057 32.1504C36.7003 32.1504 37.4949 32.2617 37.9717 32.4842C38.6074 32.6908 38.9253 32.9133 39.0842 33.1676C39.2431 33.4059 39.402 33.6284 39.561 33.835C39.561 34.0417 39.7199 34.137 39.7199 34.137V34.137ZM25.0988 11.0929C24.9399 10.934 24.9399 10.6162 24.9399 10.2983C24.9399 9.66261 24.9399 9.34477 25.2578 8.86799C25.5756 8.55014 25.8935 8.39122 26.2113 8.39122C26.6881 8.39122 27.0059 8.70907 27.3238 9.02692C27.4827 9.50369 27.6416 9.82154 27.6416 10.2983C27.6416 11.0929 27.3238 11.5697 26.6881 11.7286C26.6881 11.7286 26.847 11.8876 27.0059 11.8876C27.3238 11.8876 27.4827 12.0465 27.8005 12.2054C27.9595 11.2519 28.1184 10.6162 28.1184 9.82154C28.1184 8.86799 27.9595 8.23229 27.6416 7.75552C27.1649 7.27875 26.6881 7.11982 26.0524 7.11982C25.5756 7.11982 25.0988 7.27875 24.6221 7.59659C24.3042 8.07337 24.1453 8.39122 24.1453 8.86799C24.1453 9.66261 24.3042 10.2983 24.6221 10.934C24.781 10.934 24.9399 11.0929 25.0988 11.0929ZM27.0059 13.6357C24.9399 15.0661 23.3507 15.7017 22.0793 15.7017C20.9668 15.7017 19.8543 15.225 18.9008 14.4304C19.0597 14.7482 19.2186 15.0661 19.3775 15.225L20.3311 16.1785C20.9668 16.8142 21.7614 17.1321 22.556 17.1321C23.6685 17.1321 24.9399 16.4964 26.5292 15.3839L27.9595 14.4304C28.2773 14.1125 28.5952 13.7947 28.5952 13.3179C28.5952 13.159 28.5952 13 28.4362 13C28.2773 12.6822 27.4827 12.2054 25.8935 11.7286C24.4631 11.0929 23.3507 10.7751 22.715 10.7751C22.2382 10.7751 21.4436 11.0929 20.3311 11.7286C19.3775 12.3643 18.7418 13 18.7418 13.6357C18.7418 13.6357 18.9008 13.7947 19.0597 14.1125C20.0132 14.9071 20.9668 15.3839 21.9203 15.3839C23.1917 15.3839 24.781 14.7482 26.847 13.159V13.4768C27.0059 13.4768 27.0059 13.6357 27.0059 13.6357ZM30.6612 45.7385C31.2969 46.9336 32.4094 47.5343 33.6808 47.5343C33.9986 47.5343 34.3165 47.4867 34.6343 47.3913C34.9522 47.3277 35.27 47.2165 35.4289 47.0894C35.5879 46.9781 35.7468 46.8669 35.9057 46.7397C36.2236 46.6285 36.2236 46.549 36.3825 46.4696L39.0842 44.1334C39.7199 43.6264 40.3556 43.183 41.1502 42.7984C41.7859 42.417 42.4216 42.1627 42.7395 42.0197C43.2162 41.8925 43.5341 41.7018 43.8519 41.4475C44.0109 41.2091 44.1698 40.9072 44.1698 40.5258C44.1698 40.0649 43.8519 39.7153 43.5341 39.461C43.2162 39.2067 42.8984 39.0319 42.5805 38.9206C42.2627 38.8094 41.9448 38.5551 41.4681 38.126C41.1502 37.7128 40.8324 37.1407 40.6734 36.3937L40.5145 35.472C40.3556 35.0429 40.3556 34.725 40.1967 34.5502C40.1967 34.5025 40.1967 34.4866 40.0377 34.4866C39.8788 34.4866 39.561 34.6297 39.402 34.8998C39.0842 35.17 38.7663 35.472 38.4485 35.7898C38.2896 36.1077 37.8128 36.3937 37.4949 36.6639C37.0182 36.9341 36.5414 37.0771 36.2236 37.0771C34.9522 37.0771 34.3165 36.7275 33.8397 36.0441C33.5218 35.5355 33.3629 34.9475 33.204 34.28C32.8861 34.0099 32.7272 33.8668 32.4094 33.8668C31.6147 33.8668 31.2969 34.6932 31.2969 36.3619V36.8864V38.7299V40.1444V40.8277V41.3045C31.2969 41.4475 31.138 41.7654 31.138 42.2581C30.979 42.7507 30.979 43.3101 30.979 43.9427L30.6612 45.7067V45.7337V45.7385ZM7.61712 44.893C9.09512 45.1092 10.7956 45.5716 12.7186 46.2773C14.6416 46.9765 15.8176 47.342 16.2467 47.342C17.3592 47.342 18.281 46.8494 19.0438 45.8974C19.2027 45.5891 19.2027 45.2268 19.2027 44.8104C19.2027 43.3085 18.2969 41.4094 16.4851 39.105L15.4044 37.6588C15.1819 37.3568 14.9118 36.8959 14.5621 36.2761C14.2284 35.6563 13.9264 35.1795 13.688 34.8458C13.4814 34.4803 13.1477 34.1148 12.7186 33.7492C12.3054 33.3837 11.8286 33.1453 11.3042 33.0182C10.6367 33.1453 10.1758 33.3678 9.95332 33.6698C9.73082 33.9717 9.60368 34.3055 9.5719 34.6551C9.52422 34.9888 9.42887 35.2113 9.26994 35.3226C9.11102 35.4179 8.84084 35.4974 8.47532 35.5769C8.39585 35.5769 8.25282 35.5769 8.04622 35.5928H7.61712C6.77482 35.5928 6.2027 35.6881 5.90074 35.847C5.50343 36.3079 5.29682 36.8324 5.29682 37.3886C5.29682 37.6429 5.36039 38.072 5.48753 38.6759C5.61467 39.2639 5.67824 39.7407 5.67824 40.0744C5.67824 40.726 5.48753 41.3776 5.09022 42.0292C4.69291 42.7126 4.48631 43.2211 4.48631 43.5835C4.64523 44.2001 5.69414 44.634 7.61712 44.8883V44.893ZM12.9093 30.442C12.9093 29.3454 13.1954 28.1376 13.7834 26.7073C14.3555 25.277 14.9277 24.3234 15.4839 23.6877C15.4521 23.5288 15.3726 23.5288 15.2455 23.5288L15.0866 23.3699C14.6257 23.8466 14.0695 24.9591 13.402 26.5484C12.7345 27.9787 12.3849 29.2977 12.3849 30.2672C12.3849 30.9823 12.5597 31.6022 12.8775 32.1425C13.2272 32.667 14.0695 33.4298 15.4044 34.3992L17.089 35.4958C18.8849 37.0533 19.8384 38.134 19.8384 38.7697C19.8384 39.1034 19.6795 39.4371 19.2027 39.8027C18.8849 40.1841 18.4558 40.3748 18.0903 40.3748C18.0585 40.3748 18.0426 40.4066 18.0426 40.486C18.0426 40.5019 18.2015 40.8198 18.5352 41.4396C19.2027 42.3455 20.6331 42.7905 22.5401 42.7905C26.0365 42.7905 28.7382 41.3601 30.8042 38.4995C30.8042 37.7049 30.8042 37.2122 30.6453 37.0056V36.4176C30.6453 35.3846 30.8042 34.6058 31.1221 34.0973C31.4399 33.5887 31.7578 33.3503 32.2345 33.3503C32.5524 33.3503 32.8702 33.4616 33.1881 33.7C33.347 32.4762 33.347 31.4114 33.347 30.4579C33.347 29.0117 33.347 27.8198 33.0292 26.7073C32.8702 25.7537 32.5524 24.9591 32.2345 24.3234C31.9167 23.8466 31.5988 23.3699 31.281 22.8931C30.9631 22.4163 30.8042 21.9395 30.4864 21.4628C30.3274 20.8271 30.1685 20.3503 30.1685 19.5557C29.6918 18.761 29.3739 17.9664 28.8971 17.1718C28.5793 16.3772 28.2614 15.5826 27.9436 14.9469L26.5133 16.0593C24.924 17.1718 23.6526 17.6486 22.5401 17.6486C21.5866 17.6486 20.792 17.4897 20.3152 16.854L19.3617 16.0593C19.3617 16.5361 19.2027 17.1718 18.8849 17.8075L17.8837 19.7146C17.4387 20.8271 17.2003 21.4628 17.1526 21.9395C17.089 22.2574 17.0414 22.5752 17.0096 22.5752L15.8176 24.9591C14.5303 27.343 13.8788 29.552 13.8788 31.3797C13.8788 31.7452 13.9105 32.1266 13.9741 32.508C13.2589 32.0154 12.9093 31.332 12.9093 30.442V30.442ZM24.2883 45.4763C22.2223 45.4763 20.6331 45.756 19.5206 46.3106V46.2629C18.726 47.2165 17.836 47.7092 16.5964 47.7092C15.8176 47.7092 14.5939 47.4072 12.9411 46.8033C11.2724 46.2312 9.79439 45.7925 8.5071 45.5033C8.37996 45.4667 8.0939 45.4127 7.63302 45.3396C7.18803 45.2681 6.77482 45.195 6.4093 45.1219C6.07556 45.0504 5.69414 44.9423 5.28093 44.7961C4.88362 44.6705 4.56577 44.5068 4.32738 44.3082C4.10807 44.1079 4 43.8823 4 43.6296C4 43.3753 4.05403 43.1035 4.1621 42.8143C4.26381 42.6395 4.37506 42.4647 4.48631 42.3057C4.59756 42.1309 4.69291 41.972 4.75648 41.8131C4.85184 41.67 4.91541 41.527 4.97898 41.3681C5.04255 41.225 5.10612 41.082 5.1379 40.9072C5.16969 40.7483 5.20147 40.5893 5.20147 40.4304C5.20147 40.2715 5.1379 39.7947 5.01076 38.9524C4.88362 38.126 4.82005 37.6016 4.82005 37.3791C4.82005 36.6798 4.97898 36.1236 5.32861 35.7263C5.67824 35.3289 6.01199 35.1223 6.36162 35.1223H8.18925C8.33228 35.1223 8.55478 35.0429 8.88852 34.8522C8.99977 34.5979 9.09512 34.3913 9.15869 34.2006C9.23815 34.0099 9.26994 33.8668 9.30173 33.8033C9.33351 33.7079 9.36529 33.6126 9.39708 33.5331C9.46065 33.4218 9.54011 33.2947 9.65136 33.1676C9.52422 33.0086 9.46065 32.802 9.46065 32.5478C9.46065 32.3729 9.46065 32.214 9.49243 32.1187C9.49243 31.5465 9.76261 30.736 10.3347 29.6712L10.891 28.67C11.3519 27.8118 11.7015 27.1761 11.9558 26.5404C12.2259 25.9047 12.512 24.9512 12.8299 23.6798C13.0841 22.5673 13.688 21.4548 14.6416 20.3423L15.8335 18.912C16.6599 17.9585 17.2003 17.1639 17.5022 16.5282C17.8042 15.8925 17.9631 15.0978 17.9631 14.4621C17.9631 14.1443 17.8837 13.1907 17.7088 11.6015C17.5499 10.0122 17.4705 8.423 17.4705 6.99268C17.4705 5.88021 17.5658 5.08559 17.7724 4.29096C17.979 3.49634 18.3445 2.70172 18.8849 2.06602C19.3617 1.43032 19.9974 0.794623 20.9509 0.476774C21.9044 0.158925 23.0169 0 24.2883 0C24.7651 0 25.2419 0 25.7186 0.158925C26.1954 0.158925 26.8311 0.317849 27.6257 0.635698C28.2614 0.953548 28.8971 1.2714 29.3739 1.74817C30.0096 2.22494 30.4864 3.01957 30.9631 3.81419C31.281 4.76774 31.5988 5.72128 31.7578 6.99268C31.9167 7.7873 31.9167 8.58193 32.0756 9.6944C32.0756 10.6479 32.2345 11.2836 32.2345 11.7604C32.3935 12.2372 32.3935 12.8729 32.5524 13.6675C32.7113 14.3032 32.8702 14.9389 33.1881 15.4157C33.5059 16.0514 33.8238 16.6871 34.3006 17.3228C34.7773 18.1174 35.413 18.912 36.0487 19.8656C37.4791 21.4548 38.5915 23.203 39.2272 24.9512C40.0219 26.5404 40.4986 28.6064 40.4986 30.8155C40.4986 31.9121 40.3397 32.9769 40.0219 34.0099C40.3397 34.0099 40.4986 34.137 40.6575 34.3595C40.8165 34.582 40.9754 35.0588 41.1343 35.8057L41.2932 36.9818C41.4522 37.3314 41.6111 37.6651 42.0879 37.9512C42.4057 38.2373 42.7236 38.4756 43.2003 38.6664C43.5182 38.8253 43.995 39.0478 44.3128 39.3338C44.6307 39.6517 44.7896 39.9854 44.7896 40.3351C44.7896 40.8754 44.6307 41.2727 44.3128 41.5588C43.995 41.8766 43.6771 42.0991 43.2003 42.2422C42.8825 42.4011 42.2468 42.7189 41.2932 43.1671C40.4986 43.6375 39.704 44.2081 38.9094 44.8835L37.3201 46.2359C36.6844 46.8557 36.0487 47.3007 35.572 47.5709C35.0952 47.857 34.4595 48 33.8238 48L32.7113 47.8729C31.4399 47.5391 30.6453 46.9034 30.1685 45.934C27.6257 45.6257 25.5597 45.4731 24.2883 45.4731" fill="black"/>
</svg>
