<svg width="48" height="48" viewBox="0 0 48 48" fill="none" xmlns="http://www.w3.org/2000/svg">
<path fill-rule="evenodd" clip-rule="evenodd" d="M6.39933 33.665L3.54517 44.0862L14.2098 41.2897C17.1483 42.8921 20.4565 43.7367 23.8231 43.738H23.8318C34.9191 43.738 43.9447 34.7151 43.9496 23.627C43.9515 18.2529 41.8603 13.2001 38.0627 9.39872C34.2639 5.59731 29.2131 3.50311 23.8318 3.50049C12.7426 3.50049 3.71848 12.5219 3.71397 23.6108C3.71284 27.1552 4.63898 30.6153 6.39933 33.665ZM7.11072 23.6118C7.11411 14.3956 14.6149 6.89758 23.8382 6.89758C28.3047 6.89947 32.5025 8.64018 35.6596 11.7995C38.8167 14.9589 40.5541 19.159 40.5525 23.6254C40.5487 32.8424 33.048 40.3412 23.8317 40.3412H23.8254C20.8243 40.3397 17.8816 39.5342 15.3149 38.0108L14.7038 37.6487L8.37517 39.3081L10.0648 33.1401L9.66689 32.5078C7.9932 29.8462 7.10935 26.7701 7.11072 23.6118Z" fill="white"/>
<path fill-rule="evenodd" clip-rule="evenodd" d="M18.8039 15.2031C18.4272 14.3663 18.0308 14.3493 17.6728 14.3346C17.3797 14.3222 17.0444 14.3229 16.7094 14.3229C16.374 14.3229 15.8296 14.4488 15.3692 14.9518C14.9083 15.4548 13.6096 16.6707 13.6096 19.1439C13.6096 21.6172 15.411 24.0068 15.6619 24.3425C15.9132 24.6778 19.1393 29.9152 24.2489 31.9299C28.4949 33.6043 29.3589 33.2712 30.2809 33.1876C31.2025 33.1039 33.2549 31.9717 33.6735 30.798C34.0925 29.6243 34.0925 28.6186 33.967 28.4084C33.8411 28.1985 33.5062 28.0731 33.0032 27.8217C32.5005 27.5704 30.0292 26.3542 29.5684 26.1865C29.1076 26.0188 28.7726 25.9352 28.4373 26.4382C28.1023 26.9412 27.1396 28.0731 26.8461 28.4084C26.553 28.7441 26.2598 28.7859 25.7568 28.5346C25.2542 28.2826 23.6351 27.7524 21.7146 26.0399C20.2203 24.7076 19.2116 23.0622 18.9181 22.5591C18.625 22.0561 18.8868 21.7841 19.1389 21.5335C19.3646 21.3082 19.6415 20.9465 19.8932 20.653C20.1438 20.3595 20.2278 20.15 20.3951 19.815C20.5628 19.4793 20.4791 19.1858 20.3533 18.9344C20.2278 18.6831 19.2508 16.1971 18.8039 15.2031Z" fill="white"/>
</svg>
