<svg width="48" height="48" viewBox="0 0 48 48" fill="none" xmlns="http://www.w3.org/2000/svg">
<path fill-rule="evenodd" clip-rule="evenodd" d="M8 0C3.58172 0 0 3.58172 0 8V40C0 44.4183 3.58172 48 8 48H40C44.4183 48 48 44.4183 48 40V8C48 3.58172 44.4183 0 40 0H8ZM22.0085 13.9219C21.2608 13.4792 19.6903 12.8575 18.5184 12.5403C17.3466 12.2231 16.4568 11.852 16.5411 11.7156C16.6254 11.5792 17.7788 11.1189 19.1042 10.6927C22.5735 9.57717 26.6796 9.82294 29.7389 11.3292C30.9296 11.9155 31.5826 12.3171 31.1901 12.2217C30.3158 12.0093 26.5066 13.1633 24.9816 14.1026C24.9513 14.1213 24.9218 14.1395 24.8929 14.1573C24.3391 14.4989 24.0369 14.6852 23.7263 14.7005C23.3535 14.7189 22.9685 14.4908 22.1214 13.9888C22.0847 13.967 22.047 13.9447 22.0085 13.9219ZM29.0706 20.1102C33.0011 24.9987 35.1722 29.1905 35.2105 31.9648L35.2287 33.2872L36.2195 31.8067C37.7502 29.5197 38.3027 27.1766 38.167 23.5472C38.0658 20.8411 37.8988 20.1011 36.959 18.1965C36.3592 16.9808 35.2428 15.3764 34.4781 14.6311L33.0878 13.2761L31.8327 13.9483C31.1424 14.318 29.811 15.3239 28.874 16.1838L27.1705 17.747L29.0706 20.1102ZM11.3137 32.0679C9.05503 28.7506 8.32938 23.2881 9.67628 19.7419C10.5105 17.5456 12.4769 14.5546 13.5481 13.8527C14.322 13.3457 14.4702 13.351 15.5347 13.9243C16.1674 14.265 17.488 15.263 18.4695 16.142L20.2539 17.7403L18.343 20.1068C14.5032 24.8622 11.5459 30.7974 12.1181 32.6001C12.4067 33.5097 12.2041 33.3756 11.3137 32.0679ZM20.281 38.2369C16.8171 37.3516 12.9543 34.8707 12.9543 33.5315C12.9543 31.7385 16.8748 26.7203 21.1721 23.0125L23.5896 20.9267L24.6738 21.6818C26.377 22.8681 31.8266 28.5127 33.0458 30.3533C35.024 33.3399 34.9358 34.0058 32.3116 35.8946C29.1466 38.1726 23.9714 39.1803 20.281 38.2369Z" fill="white"/>
</svg>
