<svg width="48" height="48" viewBox="0 0 48 48" fill="none" xmlns="http://www.w3.org/2000/svg">
<path fill-rule="evenodd" clip-rule="evenodd" d="M28.0409 44.3331C29.5307 44.9179 32.4953 46.0179 33.139 45.7777C34.0072 45.4403 33.7898 38.3853 32.8155 38.1605C32.0354 37.9845 29.0484 40.1243 27.8714 40.9975C27.8256 40.8008 27.7819 40.6466 27.7469 40.5561C27.6573 40.3302 26.9658 40.2717 26.1815 40.3498C24.8636 37.0881 23.8901 33.3559 24.4858 30.7103L24.4944 30.7164C25.3178 31.2989 30.8 33.1796 33.5198 33.1275C36.2429 33.0735 40.7147 31.3777 40.2237 30.0189C39.7349 28.6597 35.2935 31.2181 30.661 30.7816C27.2304 30.4573 26.6249 28.8943 27.3846 27.7529C28.34 26.318 30.0804 28.0251 32.9507 27.1516C35.8257 26.2805 39.8461 24.7212 41.3378 23.8722C44.7869 21.9168 39.8946 21.1058 38.7389 21.6483C37.6439 22.1628 33.8318 23.1412 32.0635 23.5752C33.0579 20.0202 30.6729 13.8357 28.0127 11.1295C27.1455 10.2476 25.8121 9.6923 24.3098 9.39942C23.732 8.59306 22.8001 7.8219 21.4806 7.108C19.0175 5.77823 15.9701 5.23865 13.1366 5.73921C12.7467 5.79688 12.5318 5.94056 12.229 5.99092C12.5701 6.02169 13.8624 6.63525 14.6744 6.97252C14.2778 7.12586 13.7362 7.21749 13.3133 7.39353C13.1402 7.42283 12.9745 7.46735 12.8249 7.53559C12.4257 7.71958 12.127 8.41658 12.1298 8.74654C14.0684 8.54739 16.937 8.68347 19.0336 9.31929C17.5498 9.53155 16.1869 9.92411 15.2018 10.4527C15.1564 10.477 15.1114 10.5016 15.067 10.5266C14.949 10.5727 14.8408 10.6215 14.744 10.6733C11.5833 12.3667 10.1872 16.322 11.0193 21.0616C11.7788 25.3748 14.8919 40.1135 16.3173 47.0444C7.13078 43.7582 0.545654 34.8566 0.545654 24.3908C0.545654 11.1317 11.1152 0.382996 24.1533 0.382996C37.1915 0.382996 47.761 11.1317 47.761 24.3908C47.761 35.6804 40.0983 45.15 29.7735 47.7142C29.1412 46.474 28.5425 45.3168 28.0409 44.3331Z" fill="black"/>
<path fill-rule="evenodd" clip-rule="evenodd" d="M15.7021 20.5069C15.7021 19.5245 16.4835 18.7294 17.4509 18.7294C18.4155 18.7294 19.1978 19.5245 19.1978 20.5069C19.1978 21.4897 18.4155 22.2839 17.4509 22.2839C16.4835 22.2843 15.7021 21.4897 15.7021 20.5069ZM17.7726 19.9145C17.7726 20.1694 17.9766 20.3768 18.2249 20.3764C18.4755 20.3764 18.679 20.1694 18.679 19.9145C18.679 19.6587 18.4755 19.4531 18.2249 19.4531C17.9761 19.4531 17.7726 19.6587 17.7726 19.9145ZM27.631 19.4527C27.631 18.6111 28.3053 17.9272 29.132 17.9272C29.9632 17.9272 30.6347 18.6111 30.6347 19.4527C30.6347 20.298 29.9632 20.9818 29.132 20.9818C28.3053 20.9818 27.631 20.298 27.631 19.4527ZM29.4117 18.9448C29.4117 19.165 29.5866 19.34 29.7984 19.34C30.0195 19.34 30.1889 19.165 30.1889 18.9448C30.1889 18.7275 30.0195 18.5492 29.7984 18.5492C29.5866 18.5492 29.4117 18.7275 29.4117 18.9448ZM17.9475 15.3566C17.9475 15.3566 16.6303 14.7506 15.3495 15.5692C14.071 16.3868 14.1181 17.2227 14.1181 17.2227C14.1181 17.2227 13.4383 15.6818 15.2503 14.9266C17.0641 14.1714 17.9475 15.3566 17.9475 15.3566ZM30.0361 15.2345C30.0361 15.2345 29.0895 14.6844 28.3547 14.6938C26.845 14.714 26.4338 15.3922 26.4338 15.3922C26.4338 15.3922 26.6872 13.7753 28.6178 14.0996C29.6646 14.2766 30.0361 15.2345 30.0361 15.2345Z" fill="black"/>
</svg>
