<svg width="48" height="48" viewBox="0 0 48 48" fill="none" xmlns="http://www.w3.org/2000/svg">
<path d="M16.5504 30.9663C15.6062 30.3284 14.9525 29.3968 14.5957 28.1653L16.7873 27.2621C16.9862 28.02 17.3336 28.6074 17.8294 29.0242C18.322 29.4411 18.922 29.6463 19.6231 29.6463C20.3399 29.6463 20.9557 29.4284 21.4704 28.9926C21.9852 28.5568 22.2441 28.001 22.2441 27.3284C22.2441 26.64 21.9725 26.0779 21.4294 25.6421C20.8862 25.2063 20.2041 24.9884 19.3894 24.9884H18.1231V22.8189H19.2599C19.961 22.8189 20.5515 22.6295 21.0315 22.2505C21.5115 21.8716 21.7515 21.3537 21.7515 20.6937C21.7515 20.1063 21.5368 19.6389 21.1073 19.2884C20.6778 18.9379 20.1347 18.7611 19.4747 18.7611C18.8304 18.7611 18.3189 18.9316 17.9399 19.2758C17.5612 19.6209 17.2765 20.0567 17.1125 20.5421L14.9431 19.6389C15.2304 18.8242 15.7578 18.1042 16.5315 17.4821C17.3052 16.86 18.2936 16.5474 19.4936 16.5474C20.381 16.5474 21.1799 16.7179 21.8873 17.0621C22.5946 17.4063 23.1504 17.8832 23.5515 18.4895C23.9525 19.0989 24.1515 19.781 24.1515 20.5389C24.1515 21.3126 23.9652 21.9663 23.5925 22.5032C23.2199 23.04 22.762 23.4505 22.2189 23.7379V23.8674C22.9202 24.1565 23.5294 24.6314 23.981 25.241C24.4389 25.8568 24.6694 26.5926 24.6694 27.4516C24.6694 28.3105 24.4515 29.0779 24.0157 29.7505C23.5799 30.4232 22.9768 30.9537 22.2125 31.3389C21.4452 31.7242 20.5831 31.92 19.6262 31.92C18.5178 31.9232 17.4947 31.6042 16.5504 30.9663V30.9663ZM30.0125 20.0905L27.6062 21.8305L26.4031 20.0053L30.7199 16.8916H32.3746V31.5789H30.0125V20.0905Z" fill="black"/>
<path d="M36.6316 36.6316H11.3684V48H36.6316V36.6316Z" fill="black"/>
<path d="M36.6316 0H3.78947C1.69579 0 0 1.69579 0 3.78947V36.6316H11.3684L11.3684 11.3684H36.6316V0Z" fill="black"/>
<path d="M0 36.6316V44.2105C0 46.3042 1.69579 48 3.78947 48H11.3684V36.6316H0Z" fill="black"/>
<path d="M48 11.3684L36.6316 11.3684V36.6316H48V11.3684Z" fill="black"/>
<path d="M48 11.3684V3.78947C48 1.69579 46.3042 0 44.2105 0H36.6316V11.3684L48 11.3684Z" fill="black"/>
<path d="M36.6316 48L48 36.6316H36.6316V48Z" fill="black"/>
</svg>
