<svg width="49" height="48" viewBox="0 0 49 48" fill="none" xmlns="http://www.w3.org/2000/svg">
<path d="M18.7721 9.50904L18.7753 9.50594C21.4038 7.59135 24.6399 6.46183 28.1405 6.46183C30.0968 6.46183 31.9572 6.76613 33.6852 7.41652C33.7974 7.457 33.9457 7.48247 34.0132 7.48247C34.4264 7.48247 34.7297 7.1989 34.7321 6.79731C34.7331 6.52436 34.5978 6.29679 34.4228 6.13534C29.8453 1.92057 24.9827 0.180176 24.9827 0.180176C14.1309 4.5195 6.15114 15.0133 5.92243 27.0061C5.82431 30.4176 6.63909 33.897 8.47091 37.0697C9.55749 38.9526 10.918 40.5804 12.4705 41.9306C9.49921 40.608 6.90437 38.3703 5.15336 35.3396C4.17485 33.6444 3.50699 31.8818 3.20596 30.0616C3.18605 29.9446 3.13495 29.8025 3.10051 29.7451C2.89497 29.3875 2.49697 29.2653 2.14827 29.4664C1.91009 29.5999 1.78211 29.8324 1.73085 30.0632C0.368043 36.1346 1.29301 41.2167 1.29301 41.2167C10.6103 48.5496 23.9404 50.1538 34.5174 44.0498C39.4926 41.1758 42.6848 36.3988 43.7005 31.1699L43.704 31.1766C44.0471 34.4117 43.4054 37.7756 41.6558 40.8098C40.678 42.5033 39.4849 43.9624 38.059 45.1363C37.9664 45.2124 37.8699 45.3278 37.8363 45.3851C37.6301 45.7417 37.724 46.1473 38.0704 46.3499C38.3071 46.4887 38.5708 46.4831 38.7969 46.4108C44.7373 44.5562 48.6747 41.2153 48.6747 41.2153C50.3386 29.6824 45.2731 17.5587 35.0617 11.3479C30.2668 8.36973 24.2746 7.60539 18.7721 9.50904V9.50904ZM40.4953 23.9967C40.6484 24.7619 40.7336 25.5484 40.7336 26.3482C40.7336 33.8738 33.6829 39.9716 24.9835 39.9716C16.2837 39.9716 9.23295 33.8736 9.23295 26.3482C9.23295 25.5484 9.31719 24.7619 9.47113 23.9967C12.7402 20.6444 18.4629 18.4167 24.9834 18.4167C31.5027 18.4167 37.2261 20.6444 40.4953 23.9967Z" fill="black"/>
<path d="M22.074 20.6641C23.285 21.0894 24.1541 22.2422 24.1541 23.5992C24.1541 25.3174 22.7639 26.7076 21.0459 26.7076C19.6889 26.7076 18.5354 25.8403 18.1115 24.6265C17.7214 25.5471 17.5212 26.537 17.523 27.5369C17.523 31.6594 20.8637 34.9966 24.9836 34.9966C29.1043 34.9966 32.4439 31.6594 32.4439 27.5369C32.4439 23.4162 29.1034 20.0754 24.9836 20.0754C23.9841 20.0748 22.9947 20.275 22.074 20.6641V20.6641Z" fill="black"/>
</svg>
