<svg width="48" height="48" viewBox="0 0 48 48" fill="none" xmlns="http://www.w3.org/2000/svg">
<path d="M24 0C10.7449 0 0 10.7449 0 24C0 37.2551 10.7449 48 24 48C37.2551 48 48 37.2551 48 24C48 10.7449 37.2551 0 24 0ZM36.4582 32.487C36.4582 32.8987 36.1262 33.2308 35.7144 33.2308H32.58C32.1682 33.2308 31.8362 32.8987 31.8362 32.487V22.8312C31.8362 22.7515 31.7432 22.7117 31.6768 22.7648L25.036 29.4056C24.4649 29.9768 23.5219 29.9768 22.9507 29.4056L16.3099 22.7648C16.2568 22.7117 16.1505 22.7515 16.1505 22.8312V32.487C16.1505 32.8987 15.8185 33.2308 15.4068 33.2308H12.2723C11.8605 33.2308 11.5285 32.8987 11.5285 32.487V15.513C11.5285 15.1013 11.8605 14.7692 12.2723 14.7692H14.4239C14.8091 14.7692 15.1942 14.9286 15.4732 15.2075L23.7344 23.4687C23.8805 23.6148 24.1063 23.6148 24.2524 23.4687L32.5136 15.2075C32.7925 14.9286 33.1644 14.7692 33.5628 14.7692H35.7144C36.1262 14.7692 36.4582 15.1013 36.4582 15.513V32.487V32.487Z" fill="white"/>
</svg>
