<svg width="48" height="48" viewBox="0 0 48 48" fill="none" xmlns="http://www.w3.org/2000/svg">
<path d="M16.8696 27.0475C16.4157 25.024 16.4642 20.2143 16.9588 18.2266C17.7054 15.2279 18.9709 13.3502 20.9789 12.2601C22.761 11.4705 24.9715 11.3484 26.6222 12.1176C28.4167 12.9639 29.6629 14.6734 30.4395 17.3517C31.1534 20.5035 31.27 24.1883 30.3653 27.3934C30.0505 28.5458 29.5929 29.6758 29.0076 30.701C27.5663 28.3422 24.2893 27.3067 21.8339 28.2325L22.1785 30.6315C23.5451 30.3183 25.4139 31.6254 25.5095 32.8744C20.3029 33.6581 18.0229 31.2822 16.8708 27.0454L16.8696 27.0475Z" fill="white"/>
<path fill-rule="evenodd" clip-rule="evenodd" d="M24 0C10.7452 0 0 10.7452 0 24C0 37.2548 10.7452 48 24 48C37.2548 48 48 37.2548 48 24C48 10.7452 37.2548 0 24 0ZM34.9035 39.4965L34.5492 36.963C33.1568 37.0652 31.6416 36.4145 31.0071 34.4708C34.2752 32.2823 36.0899 29.5325 37.0425 26.0901C37.7733 23.5945 37.5889 19.7762 37.0401 17.589C35.5919 11.8219 31.2867 8.3933 24.935 8.02534C18.9237 7.67697 13.5005 10.944 11.1655 16.3923C10.3962 18.1871 10 20.1407 10 22.5686C10 29.8833 13.7313 34.9144 20.1655 36.29C21.6336 36.5888 25.3824 36.7261 26.868 36.2572C28.4616 38.8784 31.0257 41.0064 34.9014 39.4981L34.9035 39.4965Z" fill="white"/>
</svg>
