<svg width="48" height="48" viewBox="0 0 48 48" fill="none" xmlns="http://www.w3.org/2000/svg">
<path fill-rule="evenodd" clip-rule="evenodd" d="M40.6571 7.15101C36.2186 2.71924 30.3276 0.273662 24.0515 0.266907C11.1143 0.266907 0.582067 10.7991 0.575311 23.7364C0.575311 27.8709 1.65623 31.9041 3.70998 35.4643L0.379395 47.6247L12.8235 44.3617C16.2636 46.2376 20.1196 47.2202 24.038 47.2193H24.0515C36.9888 47.2193 47.5142 36.6939 47.521 23.7499C47.5277 17.4805 45.0889 11.5895 40.6571 7.15101ZM16.1811 35.0995C16.3432 35.2009 16.681 35.2009 17.4647 35.2009C20.7682 35.1941 23.6192 35.1874 25.6459 35.1874C35.1174 35.1874 34.8675 25.2159 30.4425 23.9728C31.091 22.8243 34.0433 20.6625 32.2192 16.2037C30.4087 11.7922 22.6396 12.7921 17.3228 12.7921C15.3569 12.7921 15.6474 14.2513 15.6609 16.5077C15.6744 20.0883 15.6609 29.776 15.6609 33.9646C15.6609 34.809 15.9176 34.9441 16.1811 35.0995ZM20.2751 31.4447H25.0919C27.1389 31.4379 28.9629 30.4854 28.9157 28.4451C28.8819 26.5265 27.605 25.8914 25.8283 25.7158C24.1393 25.7361 22.2072 25.7361 20.2751 25.7361V31.4447ZM20.2751 21.8785C23.8421 21.8312 25.2135 22.0204 27.1592 21.534C28.4968 20.7773 29.0778 17.9602 27.1659 17.0076C25.835 16.3456 21.91 16.5685 20.2751 16.6361V21.8785ZM24.0515 43.2537H24.038C20.5385 43.2537 17.1066 42.3147 14.1138 40.5379L13.3977 40.1123L6.01368 42.0512L7.98636 34.8563L7.52022 34.1132C5.56807 31.0046 4.53521 27.4071 4.54093 23.7364C4.54093 12.9812 13.2964 4.23253 24.0583 4.23253C29.267 4.23253 34.1649 6.26601 37.8468 9.95464C41.5354 13.6365 43.5621 18.5412 43.5621 23.7499C43.5554 34.505 34.7999 43.2537 24.0515 43.2537Z" fill="black"/>
</svg>
