<svg width="48" height="48" viewBox="0 0 48 48" fill="none" xmlns="http://www.w3.org/2000/svg">
<path fill-rule="evenodd" clip-rule="evenodd" d="M8 0C3.58172 0 0 3.58172 0 8V40C0 44.4183 3.58172 48 8 48H40C44.4183 48 48 44.4183 48 40V8C48 3.58172 44.4183 0 40 0H8ZM37.6391 10.9561L35.2544 8.57147L21.1538 22.6721L23.5385 25.0567L37.6391 10.9561ZM28.2732 10.9907L25.8885 8.60602L11.788 22.7066L14.1726 25.0913L28.2732 10.9907ZM19.7652 39.2259V33.6314H21.3636V39.2259H19.7652ZM19.8966 32.5366C20.0645 32.6899 20.2871 32.7665 20.5644 32.7665C20.8418 32.7665 21.0644 32.6899 21.2323 32.5366C21.4001 32.3833 21.4841 32.1753 21.4841 31.9125C21.4841 31.6498 21.4001 31.4418 21.2323 31.2885C21.0644 31.1352 20.8418 31.0586 20.5644 31.0586C20.2871 31.0586 20.0645 31.1352 19.8966 31.2885C19.7287 31.4418 19.6448 31.6498 19.6448 31.9125C19.6448 32.1753 19.7287 32.3833 19.8966 32.5366ZM15.5518 39.2259L14.5884 35.2955L13.614 39.2259H12.0703L10.2858 33.6314H11.9718L12.9024 37.6713L13.9096 33.6314H15.3438L16.3729 37.6822L17.2488 33.6314H18.891L17.0955 39.2259H15.5518ZM26.9794 38.985C26.7824 39.1018 26.5452 39.1894 26.2678 39.2478C25.9905 39.3135 25.7022 39.3463 25.4029 39.3463C24.5125 39.3463 23.83 39.0982 23.3556 38.6019C22.8885 38.1055 22.6549 37.3903 22.6549 36.456C22.6549 35.5291 22.9031 34.8065 23.3994 34.2883C23.8957 33.7701 24.5854 33.511 25.4686 33.511C26.0014 33.511 26.4941 33.6278 26.9466 33.8613V34.9233C26.516 34.7992 26.1218 34.7372 25.7642 34.7372C25.2533 34.7372 24.8774 34.8685 24.6365 35.1313C24.3957 35.3868 24.2752 35.7955 24.2752 36.3575V36.5108C24.2752 37.0655 24.392 37.4742 24.6256 37.737C24.8664 37.9924 25.235 38.1201 25.7313 38.1201C26.089 38.1201 26.505 38.0544 26.9794 37.9231V38.985ZM28.1143 39.2259V31.1243H29.7018V36.0181L31.6396 33.6314H33.5445L31.2345 36.3027L33.7197 39.2259H31.771L29.7018 36.675V39.2259H28.1143ZM34.4864 39.2259V33.6314H35.8002L35.9973 34.4635C36.2892 34.1423 36.5629 33.9161 36.8184 33.7847C37.0811 33.646 37.3585 33.5767 37.6504 33.5767C37.7891 33.5767 37.9351 33.5876 38.0884 33.6095V35.0875C37.884 35.0437 37.6577 35.0218 37.4096 35.0218C36.9352 35.0218 36.4936 35.1058 36.0849 35.2736V39.2259H34.4864Z" fill="white"/>
</svg>
