<svg width="48" height="48" viewBox="0 0 48 48" fill="none" xmlns="http://www.w3.org/2000/svg">
<path d="M24.4413 31.0483C23.4562 29.8872 22.86 28.3909 22.86 26.7575L22.8628 16.1399C22.8628 15.2741 23.5722 14.57 24.4441 14.57C25.316 14.57 26.0254 15.2741 26.0254 16.1399L26.0226 26.7576C26.0226 28.3909 25.4264 29.8872 24.4413 31.0483Z" fill="black"/>
<path fill-rule="evenodd" clip-rule="evenodd" d="M24 0C10.7452 0 0 10.7452 0 24C0 37.2548 10.7452 48 24 48C37.2548 48 48 37.2548 48 24C48 10.7452 37.2548 0 24 0ZM36.3014 26.7576C36.3014 30.4369 33.3199 33.43 29.614 33.43C28.1214 33.43 26.7288 32.9385 25.6122 32.118C26.8607 30.6752 27.604 28.8043 27.604 26.7576L27.6067 16.14C27.6067 14.4087 26.188 13 24.4441 13C22.7002 13 21.2814 14.4086 21.2814 16.14L21.2787 26.7576C21.2787 28.8044 22.072 30.6752 23.3204 32.118C22.2038 32.9385 20.8114 33.43 19.3186 33.43C15.6127 33.43 12.5813 30.4368 12.5813 26.7576V13.8051H11V26.7575C11 31.3023 14.7575 35 19.3353 35C21.2761 35 23.0761 34.3304 24.4913 33.2183C25.9065 34.3304 27.6649 35 29.6057 35C34.1835 35 37.8828 31.3023 37.8828 26.7575V13.8051H36.3015L36.3014 26.7576Z" fill="black"/>
</svg>
